<?xml version="1.0" encoding="UTF-8"?>
<!-- Generator: visioncortex VTracer 0.6.3 -->
<svg version="1.1" xmlns="http://www.w3.org/2000/svg" width="1280" height="1280">
<path d="M0 0 C-0.66 0 -1.32 0 -2 0 C-1.99 0.77 -1.98 1.54 -1.96 2.34 C-1.95 3.84 -1.95 3.84 -1.94 5.38 C-1.93 6.37 -1.91 7.37 -1.9 8.4 C-2 11 -2 11 -3 13 C-3.04 14.5 -3.04 16 -3 17.5 C-2.89 21.78 -2.89 21.78 -4 24 C-4.21 25.73 -4.37 27.46 -4.5 29.19 C-4.58 30.22 -4.66 31.24 -4.75 32.3 C-4.92 34.48 -5.08 36.66 -5.25 38.83 C-5.33 39.86 -5.41 40.88 -5.5 41.94 C-5.57 42.89 -5.64 43.83 -5.72 44.81 C-6 47 -6 47 -7 48 C-7.05 50 -7.04 52 -7 54 C-6.96 56 -6.95 58 -7 60 C-7.33 60.33 -7.66 60.66 -8 61 C-8.06 64.19 -8.02 67.36 -7.96 70.54 C-7.9 75.8 -7.9 75.8 -9 78 C-9.21 80.74 -9.38 83.47 -9.5 86.22 C-9.54 87.03 -9.58 87.85 -9.62 88.68 C-9.75 91.29 -9.88 93.89 -10 96.5 C-10.16 99.93 -10.33 103.35 -10.5 106.78 C-10.54 107.57 -10.57 108.37 -10.61 109.18 C-10.89 114.77 -10.89 114.77 -12 117 C-12.15 118.74 -12.25 120.48 -12.32 122.23 C-12.36 123.26 -12.4 124.29 -12.44 125.35 C-12.5 126.97 -12.5 126.97 -12.56 128.62 C-12.61 129.71 -12.65 130.8 -12.69 131.92 C-12.8 134.61 -12.9 137.31 -13 140 C-16.15 139.89 -19.29 139.76 -22.44 139.62 C-23.32 139.59 -24.19 139.56 -25.1 139.53 C-30.94 139.27 -36.34 138.43 -42 137 C-42.86 136.81 -43.72 136.63 -44.6 136.44 C-49.13 135.46 -53.56 134.32 -58 133 C-55.48 113.13 -47.61 93.59 -39.4 75.43 C-38.01 72.36 -36.74 69.31 -35.62 66.14 C-33.51 60.43 -30.45 55.2 -27.5 49.89 C-25.16 45.58 -23.4 41.98 -23 37 C-25.83 35.58 -27.87 36.52 -30.83 37.23 C-33.49 38.17 -35.61 39.51 -38 41 C-40.7 42.56 -43.41 44.09 -46.12 45.62 C-46.84 46.03 -47.56 46.44 -48.29 46.86 C-49.33 47.44 -49.33 47.44 -50.38 48.04 C-51.01 48.39 -51.63 48.74 -52.27 49.11 C-54 50 -54 50 -57 51 C-57 51.66 -57 52.32 -57 53 C-58.05 53.49 -58.05 53.49 -59.12 53.99 C-60.03 54.43 -60.94 54.86 -61.88 55.31 C-62.78 55.74 -63.68 56.17 -64.62 56.61 C-67.26 57.92 -67.26 57.92 -69 61 C-71.52 62.7 -73.82 63.94 -76.69 64.94 C-79.13 65.77 -79.13 65.77 -79.94 67.88 C-81 70 -81 70 -83.5 71.58 C-88.3 74.67 -92.13 78.84 -96.12 82.88 C-96.92 83.67 -97.72 84.46 -98.54 85.27 C-102.56 89.3 -106.03 93.15 -109 98 C-111.3 100.66 -113.18 102.58 -116.31 104.19 C-120.72 103.88 -123.91 101.03 -127 98 C-127 97.34 -127 96.68 -127 96 C-127.57 95.76 -128.14 95.52 -128.73 95.27 C-131.46 93.74 -133.2 91.93 -135.34 89.65 C-136.15 88.8 -136.97 87.95 -137.81 87.07 C-139.52 85.27 -141.22 83.47 -142.91 81.66 C-143.73 80.81 -144.55 79.96 -145.4 79.09 C-146.14 78.3 -146.88 77.52 -147.64 76.71 C-150.6 74.56 -152.42 74.66 -156 75 C-156 75.66 -156 76.32 -156 77 C-156.93 77.6 -157.86 78.2 -158.81 78.81 C-162.98 81.67 -164.54 83.91 -165.62 88.81 C-164.64 93.83 -161.53 96.44 -158 100 C-157.12 100.93 -156.23 101.87 -155.32 102.83 C-149.64 108.74 -143.77 114.01 -137.1 118.79 C-133.1 121.7 -133.1 121.7 -132 125 C-131.34 125 -130.68 125 -130 125 C-130.33 127.31 -130.66 129.62 -131 132 C-131.66 132 -132.32 132 -133 132 C-133.25 132.68 -133.5 133.35 -133.76 134.05 C-135.24 137.58 -137.04 140.9 -138.88 144.25 C-142.99 151.88 -146.57 159.41 -149.22 167.68 C-150.06 170.17 -151.01 172.58 -152 175 C-155.26 183.07 -157.5 190.94 -159.25 199.48 C-159.91 202.58 -160.68 205.62 -161.5 208.69 C-163.12 214.98 -164.07 221.35 -165 227.77 C-165.9 233.9 -165.9 233.9 -167 235 C-167.03 237.72 -166.93 240.42 -166.84 243.14 C-167.01 246.16 -167.73 248.27 -169 251 C-170.7 251.22 -170.7 251.22 -172.44 251.44 C-175.81 251.61 -175.81 251.61 -177 253 C-179.52 253.15 -182.01 253.24 -184.52 253.28 C-185.29 253.3 -186.06 253.32 -186.85 253.34 C-188.51 253.37 -190.16 253.41 -191.81 253.45 C-196.06 253.54 -200.31 253.64 -204.55 253.75 C-205.8 253.78 -205.8 253.78 -207.07 253.81 C-213.21 253.97 -219.36 254.18 -225.5 254.5 C-226.58 254.55 -226.58 254.55 -227.68 254.61 C-231.21 254.81 -234.54 255.29 -238 256 C-240.67 256 -243.33 256 -246 256 C-246.82 256.16 -247.65 256.33 -248.5 256.5 C-251 257 -251 257 -254.75 256.94 C-258.54 256.89 -261.85 257.54 -265.52 258.43 C-272.21 259.98 -278.97 260.97 -285.81 261.5 C-290.11 261.85 -293.86 262.77 -298 264 C-303.76 265.13 -309.52 266 -315.38 266.5 C-319.18 266.84 -322.38 267.74 -326 269 C-327.43 269.19 -328.87 269.36 -330.31 269.5 C-331.53 269.66 -332.75 269.83 -334 270 C-334.33 270.66 -334.66 271.32 -335 272 C-334.39 272.04 -333.78 272.07 -333.15 272.11 C-326.8 272.47 -320.46 272.85 -314.12 273.23 C-311.75 273.37 -309.38 273.51 -307.01 273.64 C-303.61 273.84 -300.21 274.04 -296.82 274.25 C-295.75 274.31 -294.68 274.37 -293.58 274.43 C-292.6 274.49 -291.62 274.55 -290.61 274.61 C-289.74 274.66 -288.88 274.71 -287.98 274.77 C-286 275 -286 275 -285 276 C-282.22 276.22 -279.45 276.38 -276.66 276.5 C-275.82 276.54 -274.99 276.58 -274.12 276.62 C-271.44 276.75 -268.75 276.88 -266.06 277 C-262.53 277.16 -259 277.33 -255.47 277.5 C-254.65 277.54 -253.84 277.57 -252.99 277.61 C-247.23 277.89 -247.23 277.89 -245 279 C-243.58 279.07 -242.15 279.08 -240.72 279.06 C-239.83 279.05 -238.94 279.05 -238.01 279.04 C-237.04 279.02 -236.07 279.01 -235.06 279 C-225.76 278.94 -216.48 279.1 -207.19 279.44 C-205.42 279.5 -205.42 279.5 -203.61 279.56 C-202.52 279.6 -201.42 279.64 -200.29 279.68 C-199.32 279.72 -198.34 279.76 -197.34 279.79 C-195 280 -195 280 -193 281 C-191.27 281.14 -189.54 281.23 -187.81 281.28 C-186.78 281.32 -185.76 281.36 -184.7 281.39 C-182.52 281.46 -180.34 281.54 -178.17 281.61 C-177.14 281.64 -176.12 281.68 -175.06 281.72 C-174.11 281.75 -173.17 281.78 -172.19 281.81 C-170 282 -170 282 -169 283 C-168.68 285.06 -168.49 287.12 -168.28 289.19 C-168.18 291.02 -168.18 291.02 -167 292 C-166.93 295.63 -167 299.25 -167.06 302.88 C-167.36 305.87 -167.36 305.87 -166 307 C-165.62 309.79 -165.29 312.57 -165 315.38 C-164.84 316.92 -164.67 318.47 -164.5 320.02 C-164.43 320.71 -164.36 321.4 -164.28 322.11 C-164.02 324.22 -164.02 324.22 -163 327 C-162.74 329.15 -162.56 331.3 -162.38 333.45 C-161.89 336.74 -160.94 339.81 -160 343 C-159.62 344.44 -159.25 345.87 -158.89 347.31 C-155.88 359.1 -152.61 370.72 -148 382 C-147.67 382.84 -147.33 383.68 -146.99 384.55 C-144.23 391.39 -141.1 397.95 -137.68 404.48 C-135.88 407.97 -134.51 411.09 -134 415 C-133.34 415 -132.68 415 -132 415 C-130.54 417.65 -130 418.89 -130 422 C-131.62 423.39 -133.29 424.72 -135 426 C-135.6 426.6 -136.2 427.2 -136.81 427.81 C-138.75 429.75 -140.73 431.48 -142.81 433.25 C-146.34 436.31 -149.39 439.59 -152.4 443.15 C-154 445 -154 445 -156.75 447.69 C-158.99 449.99 -160.4 452.24 -162 455 C-162.54 455.45 -163.07 455.91 -163.62 456.38 C-165.86 459.02 -165.82 461.63 -166 465 C-165.11 467.47 -164.44 468.7 -162.27 470.2 C-161.6 470.5 -160.94 470.81 -160.25 471.12 C-159.54 471.45 -158.84 471.78 -158.11 472.12 C-155.45 473.23 -152.76 474.17 -150 475 C-149.66 474.23 -149.66 474.23 -149.31 473.44 C-146.56 468.33 -143.16 464.03 -139 460 C-138.46 459.26 -137.93 458.51 -137.38 457.75 C-136.92 457.17 -136.47 456.6 -136 456 C-135.34 456 -134.68 456 -134 456 C-133.79 455.42 -133.59 454.85 -133.38 454.25 C-131.5 451.18 -129.01 449.95 -126 448 C-125.15 447.13 -124.31 446.27 -123.44 445.38 C-121 443 -119.22 442.01 -116 441 C-113 444.75 -113 444.75 -113 447 C-112.34 447 -111.68 447 -111 447 C-110.79 447.8 -110.59 448.61 -110.38 449.44 C-109.23 452.19 -109.23 452.19 -106.56 453.12 C-101.97 452.96 -98.91 451.23 -94.84 449.21 C-90.83 447.5 -87.33 447.21 -83 447 C-85.57 441.46 -88.34 437.23 -93.19 433.5 C-96 431 -96 431 -96.88 428.19 C-96.94 427.1 -96.94 427.1 -97 426 C-95.35 425.34 -93.7 424.68 -92 424 C-92 423.34 -92 422.68 -92 422 C-90.59 421.27 -89.17 420.57 -87.75 419.88 C-86.96 419.48 -86.17 419.09 -85.36 418.68 C-83 418 -83 418 -80.83 418.51 C-78.19 420.66 -77.87 422.73 -77 426 C-76.63 427.23 -76.27 428.46 -75.89 429.73 C-75.69 430.39 -75.5 431.04 -75.3 431.71 C-73.38 438.12 -71.26 444.04 -68.05 449.95 C-67 452 -67 452 -65.94 455.5 C-65.23 458.09 -65.23 458.09 -63.19 459.31 C-60.8 460.06 -58.46 460.54 -56 461 C-53.66 461.65 -51.33 462.32 -49 463 C-49.31 462.31 -49.62 461.61 -49.94 460.9 C-51.08 457.78 -51.56 454.92 -52 451.62 C-52.63 446.91 -53.68 442.56 -55 438 C-55.79 434.21 -56.5 430.42 -57.22 426.62 C-57.94 423.3 -58.91 420.21 -60 417 C-60.38 413.81 -60.38 413.81 -60 411 C-57.21 408.4 -54.69 407.45 -51 406.65 C-50.04 406.44 -49.07 406.23 -48.08 406.01 C-47.06 405.8 -46.05 405.59 -45 405.38 C-43.97 405.16 -42.94 404.94 -41.87 404.71 C-34.92 403.28 -28.11 402.17 -21 402 C-18 408.26 -17.8 413.35 -17.96 420.24 C-18.4 430.39 -18.4 430.39 -16 440 C-15.79 442.27 -15.63 444.55 -15.5 446.84 C-15.46 447.51 -15.42 448.19 -15.38 448.88 C-15.25 451.05 -15.12 453.21 -15 455.38 C-14.88 457.53 -14.75 459.69 -14.62 461.84 C-14.51 463.81 -14.39 465.77 -14.28 467.73 C-14.06 470.32 -13.69 472.52 -13 475 C-12.94 477.53 -13 480.04 -13.06 482.56 C-13 484.89 -12.58 486.75 -12 489 C-11.96 490.4 -11.96 491.79 -12 493.19 C-12 494.45 -12 495.7 -12 497 C-11.67 497.33 -11.34 497.66 -11 498 C-10.78 499.95 -10.63 501.91 -10.5 503.86 C-10.42 505.06 -10.34 506.26 -10.25 507.49 C-10.17 508.75 -10.09 510.01 -10 511.31 C-9.84 513.79 -9.67 516.26 -9.5 518.74 C-9.43 519.84 -9.36 520.95 -9.28 522.08 C-9.05 524.52 -8.6 526.64 -8 529 C-8 531.02 -8 533.03 -8.03 535.05 C-7.99 537.45 -7.51 539.66 -7 542 C-7 543.67 -7 545.33 -7 547 C-6.67 547.33 -6.34 547.66 -6 548 C-5.65 550.98 -5.36 553.95 -5.1 556.93 C-4.93 558.8 -4.76 560.66 -4.59 562.53 C-4.33 565.47 -4.06 568.41 -3.8 571.36 C-3.55 574.19 -3.29 577.03 -3.04 579.87 C-2.96 580.74 -2.89 581.6 -2.81 582.49 C-2.33 587.7 -1.54 592.75 -0.44 597.87 C0.08 600.37 0.36 602.84 0.56 605.38 C0.75 607.68 0.95 609.81 1.52 612.05 C2.25 615.03 2.06 617.96 2 621 C2.66 621.33 3.32 621.66 4 622 C5.74 618.51 5.46 614.5 5.72 610.65 C6 608 6 608 7 607 C7.36 604.51 7.67 602.04 7.94 599.54 C8.02 598.79 8.11 598.04 8.2 597.27 C8.47 594.87 8.73 592.46 9 590.06 C9.27 587.66 9.53 585.27 9.8 582.87 C9.97 581.37 10.14 579.88 10.3 578.38 C10.89 573.23 10.89 573.23 12 571 C12.2 569.41 12.35 567.81 12.46 566.21 C12.54 565.22 12.62 564.23 12.7 563.2 C12.78 562.12 12.86 561.05 12.94 559.94 C13.02 558.84 13.11 557.73 13.2 556.6 C13.47 553.07 13.73 549.53 14 546 C14.35 541.35 14.7 536.71 15.06 532.06 C15.14 530.99 15.22 529.91 15.3 528.8 C15.38 527.8 15.46 526.81 15.54 525.79 C15.6 524.91 15.67 524.03 15.73 523.13 C16 521 16 521 17 519 C17.2 517.4 17.35 515.8 17.46 514.2 C17.54 513.2 17.62 512.2 17.7 511.18 C17.78 510.1 17.86 509.02 17.94 507.9 C18.02 506.8 18.11 505.69 18.2 504.56 C18.56 499.81 18.92 495.07 19.27 490.33 C19.53 486.87 19.8 483.42 20.06 479.96 C20.14 478.88 20.22 477.8 20.3 476.69 C20.42 475.19 20.42 475.19 20.54 473.67 C20.6 472.79 20.67 471.91 20.73 471 C21 469 21 469 22 468 C22.21 466.32 22.35 464.63 22.46 462.95 C22.54 461.87 22.62 460.79 22.7 459.68 C22.78 458.51 22.86 457.33 22.94 456.12 C23.02 454.93 23.11 453.74 23.2 452.5 C23.47 448.67 23.73 444.84 24 441 C24.35 435.96 24.7 430.92 25.06 425.88 C25.14 424.7 25.22 423.53 25.3 422.32 C25.38 421.24 25.46 420.17 25.54 419.05 C25.6 418.1 25.67 417.15 25.73 416.16 C26 414 26 414 27 413 C27.23 411.15 27.41 409.3 27.56 407.44 C27.65 406.43 27.73 405.41 27.82 404.37 C27.88 403.59 27.94 402.81 28 402 C55.32 403.45 55.32 403.45 67 409 C67 409.66 67 410.32 67 411 C67.66 411 68.32 411 69 411 C68.81 411.73 68.61 412.45 68.41 413.2 C66.76 419.61 65.42 425.96 64.43 432.5 C64 435 64 435 63 438 C62.66 439.67 62.33 441.33 62 443 C61.68 444.43 61.36 445.86 61.03 447.29 C60.76 448.45 60.76 448.45 60.49 449.64 C60.12 451.26 59.75 452.88 59.37 454.49 C59.2 455.27 59.02 456.05 58.84 456.85 C58.68 457.55 58.52 458.25 58.35 458.97 C57.89 461.31 57.89 461.31 58 465 C58.98 464.49 59.95 463.99 60.96 463.47 C62.24 462.81 63.53 462.16 64.81 461.5 C65.46 461.17 66.1 460.83 66.76 460.49 C69.7 459 71.66 458 75 458 C75.39 456.08 75.39 456.08 75.79 454.12 C76.94 448.95 78.59 444.04 80.38 439.06 C80.69 438.19 81 437.32 81.32 436.41 C81.94 434.7 82.55 433 83.17 431.29 C83.87 429.37 84.54 427.44 85.21 425.52 C85.69 424.18 85.69 424.18 86.19 422.81 C86.45 422.08 86.71 421.34 86.98 420.58 C88 419 88 419 89.76 418.07 C93.08 417.97 94.86 419.35 97.62 421.12 C98.59 421.73 99.55 422.33 100.54 422.95 C103.2 425.17 104.03 426.71 105 430 C98 438 98 438 91 446 C92.98 446.66 94.96 447.32 97 448 C97 448.66 97 449.32 97 450 C97.74 450.27 98.49 450.54 99.25 450.81 C102 452 102 452 104.06 453.56 C106.08 455.06 107.55 455.56 110 456 C110 456.66 110 457.32 110 458 C114.68 454.44 117.98 450.97 120.86 445.83 C122.05 443.93 123.36 442.52 125 441 C129.25 442.39 131.72 444.34 134.86 447.5 C135.75 448.39 136.64 449.27 137.55 450.19 C138.46 451.12 139.37 452.04 140.31 453 C141.24 453.93 142.18 454.86 143.13 455.81 C150 462.73 150 462.73 150 465 C150.66 465 151.32 465 152 465 C153.02 466.66 154.02 468.32 155 470 C155.66 470.33 156.32 470.66 157 471 C157 471.99 157 472.98 157 474 C164.03 474.74 164.03 474.74 170 471.5 C170.66 470.67 171.32 469.85 172 469 C172.66 469 173.32 469 174 469 C174.7 460.16 172.12 455.29 167 448.25 C164.76 445.73 162.39 443.38 160 441 C159.22 440.2 158.44 439.4 157.64 438.57 C152.96 433.79 148.31 429.49 142.81 425.67 C140.53 423.57 139.7 422.02 139 419 C139.87 416.85 139.87 416.85 141.44 414.62 C148.79 403.3 153.52 390.58 158.25 377.99 C158.9 376.27 159.56 374.55 160.22 372.84 C162.69 366.33 164.4 359.76 166 353 C166.52 350.96 167.04 348.92 167.56 346.88 C168.73 342.23 169.71 337.58 170.57 332.86 C171 331 171 331 172 330 C173.88 319.46 174.5 308.8 175.06 298.12 C175.18 295.95 175.3 293.78 175.42 291.61 C175.53 289.68 175.63 287.75 175.73 285.81 C176 283 176 283 177 282 C179.05 281.85 181.1 281.77 183.15 281.72 C184.4 281.68 185.65 281.64 186.94 281.61 C188.26 281.57 189.58 281.54 190.94 281.5 C193.53 281.43 196.12 281.36 198.71 281.28 C199.87 281.25 201.03 281.22 202.22 281.19 C204.96 281.18 204.96 281.18 207 280 C209.07 279.93 211.14 279.92 213.21 279.94 C215.08 279.95 215.08 279.95 216.98 279.96 C219.62 279.99 222.25 280.01 224.88 280.04 C226.75 280.05 226.75 280.05 228.65 280.06 C230.37 280.08 230.37 280.08 232.12 280.1 C235.07 280.13 235.07 280.13 238 279 C239.54 278.93 241.09 278.92 242.63 278.94 C243.52 278.95 244.41 278.95 245.32 278.96 C246.25 278.97 247.17 278.99 248.12 279 C249.96 279.03 251.8 279.05 253.63 279.06 C254.85 279.08 254.85 279.08 256.1 279.1 C258.01 279.21 258.01 279.21 259 278 C261.48 277.78 263.94 277.62 266.43 277.5 C267.18 277.46 267.92 277.42 268.69 277.38 C271.09 277.25 273.48 277.12 275.88 277 C278.26 276.88 280.65 276.75 283.04 276.62 C284.53 276.54 286.01 276.47 287.5 276.39 C290.55 276.23 293.09 275.97 296 275 C297.48 274.84 298.96 274.72 300.44 274.63 C301.33 274.57 302.23 274.51 303.15 274.45 C304.11 274.4 305.07 274.34 306.07 274.28 C307.06 274.22 308.05 274.16 309.07 274.09 C313.31 273.82 317.55 273.56 321.79 273.3 C324.88 273.11 327.97 272.92 331.07 272.72 C332.03 272.66 333 272.6 333.99 272.55 C334.88 272.49 335.77 272.43 336.69 272.37 C337.87 272.3 337.87 272.3 339.07 272.23 C341.08 272.1 341.08 272.1 343 271 C339.46 269.92 336.17 269.02 332.5 268.5 C329 268 329 268 325.89 267.07 C321.43 265.76 316.9 265.11 312.31 264.44 C310.64 264.19 308.97 263.94 307.3 263.68 C306.21 263.52 306.21 263.52 305.09 263.36 C303.02 263 301.03 262.51 299 262 C296.42 261.71 293.83 261.5 291.24 261.28 C289 261 289 261 287 260 C284.44 259.63 281.88 259.3 279.31 259 C265.12 257.32 265.12 257.32 262.01 256.44 C258.94 255.77 255.95 255.95 252.81 256 C250.54 256.04 248.27 256.05 246 256 C245.67 255.67 245.34 255.34 245 255 C242.96 254.86 240.92 254.79 238.88 254.75 C237.56 254.72 236.25 254.69 234.9 254.66 C234.2 254.64 233.49 254.63 232.76 254.62 C230.56 254.57 228.36 254.52 226.16 254.46 C219.89 254.3 213.63 254.16 207.37 254.03 C203.54 253.95 199.72 253.85 195.89 253.75 C194.43 253.71 192.97 253.68 191.51 253.66 C189.47 253.62 187.43 253.56 185.38 253.51 C184.22 253.48 183.06 253.46 181.86 253.43 C179 253 179 253 177.14 251.68 C175.26 248.91 175.19 245.78 174.87 242.52 C174.79 241.8 174.7 241.07 174.62 240.32 C174.36 238.01 174.12 235.69 173.88 233.38 C173.62 231.05 173.37 228.73 173.11 226.4 C172.95 224.96 172.8 223.51 172.65 222.07 C172.54 218.75 172.54 218.75 171 216 C170.6 213.98 170.21 211.95 169.85 209.92 C165.13 183.83 155.48 158.89 142.25 135.97 C141.69 134.99 141.14 134.01 140.56 133 C139.79 131.67 139.79 131.67 139 130.31 C138 128 138 128 139 125 C140.64 123.57 140.64 123.57 142.69 122.12 C143.77 121.34 143.77 121.34 144.88 120.54 C145.58 120.03 146.28 119.52 147 119 C150.2 116.56 153.06 114.03 155.56 110.88 C158 108 158 108 160.62 106.44 C163.53 104.68 164.33 102.92 166 100 C170.35 95.22 170.35 95.22 174 94 C174.67 88.63 174.49 85 171.19 80.56 C169.2 78.13 167.66 76.77 165 75 C160.13 75.21 157.86 76.52 154.51 79.96 C153.72 80.76 152.94 81.56 152.12 82.39 C150.92 83.65 150.92 83.65 149.69 84.94 C148.86 85.77 148.04 86.61 147.19 87.47 C143.13 91.39 143.13 91.39 140 96 C138.68 96 137.36 96 136 96 C135.77 96.6 135.55 97.2 135.31 97.81 C133.65 100.59 131.79 101.43 129 103 C127.25 104.58 127.25 104.58 126 106 C119.88 100.08 114.25 93.68 108.75 87.19 C106.3 84.31 103.71 81.64 101 79 C99.82 77.76 99.82 77.76 98.62 76.5 C96.52 74.49 94.57 72.94 92.19 71.31 C90.61 70.17 90.61 70.17 89 69 C89 68.34 89 67.68 89 67 C88.38 66.69 87.76 66.38 87.12 66.06 C85.75 65.38 84.38 64.69 83 64 C83 63.34 83 62.68 83 62 C82.28 61.73 81.56 61.46 80.81 61.19 C78 60 75.52 58.73 73 57 C73 56.34 73 55.68 73 55 C72.22 54.69 71.43 54.38 70.62 54.06 C68 53 68 53 66 52 C66 51.34 66 50.68 66 50 C63.69 49.34 61.38 48.68 59 48 C59 47.34 59 46.68 59 46 C57.02 45.34 55.04 44.68 53 44 C53 43.34 53 42.68 53 42 C52.41 41.82 51.82 41.64 51.21 41.45 C44.5 39.31 44.5 39.31 41.44 37.38 C37.99 35.43 34.93 35.33 31 35 C31.32 40.89 32.49 44.21 35.8 49.05 C37.53 51.85 38.17 54.84 39 58 C39.99 59.67 40.99 61.34 42 63 C43 65.42 43.93 67.85 44.84 70.3 C46 73.16 46 73.16 47.94 76.3 C50.2 80.16 51.6 84.14 53 88.38 C54.56 92.95 56.1 97.45 58.19 101.81 C60.18 106.07 61.16 110.43 62.2 115 C63.2 118.76 64.72 122.16 66.43 125.65 C67.22 128.9 66.24 130.96 65 134 C63.87 134.19 62.73 134.39 61.56 134.59 C60.04 134.85 58.52 135.11 57 135.38 C56.26 135.5 55.51 135.63 54.75 135.76 C51.07 136.4 47.47 137.11 43.86 138.07 C40.25 138.94 36.95 139.35 33.25 139.56 C29.7 139.77 26.42 140 23 141 C22.67 139.68 22.34 138.36 22 137 C21.34 137 20.68 137 20 137 C19.95 135.91 19.95 135.91 19.89 134.8 C19.56 127.99 19.22 121.18 18.88 114.37 C18.7 110.86 18.53 107.36 18.36 103.86 C18.16 99.83 17.96 95.81 17.75 91.79 C17.69 90.52 17.63 89.26 17.57 87.96 C17.48 86.21 17.48 86.21 17.39 84.44 C17.34 83.41 17.29 82.38 17.23 81.32 C17.25 79.04 17.25 79.04 16 78 C15.72 75.07 15.5 72.15 15.32 69.21 C15.19 67.39 15.07 65.56 14.94 63.73 C14.75 60.84 14.56 57.95 14.38 55.07 C14.2 52.28 14.01 49.5 13.82 46.71 C13.76 45.86 13.71 45.01 13.66 44.13 C13.29 38.86 12.36 34.11 11 29 C10.74 27.25 10.52 25.49 10.37 23.72 C10.24 22.33 10.24 22.33 10.11 20.92 C10.03 19.97 9.96 19.03 9.88 18.06 C9.79 17.12 9.7 16.19 9.61 15.22 C9.11 9.46 8.92 3.79 9 -2 C17.38 -2.22 25.54 -1.99 33.88 -1.06 C34.67 -0.98 35.46 -0.89 36.27 -0.8 C41.87 -0.13 41.87 -0.13 43 1 C44.38 1.28 45.78 1.52 47.17 1.73 C60.68 3.89 73.17 7.3 86 12 C87.44 12.51 88.87 13.03 90.31 13.54 C94.23 14.96 98.12 16.46 102 18 C102.62 18.24 103.23 18.48 103.87 18.73 C121.22 25.62 137.79 35.2 153 46 C154.15 46.8 155.29 47.59 156.44 48.39 C168.58 56.89 180.97 66.03 191 77 C191 77.66 191 78.32 191 79 C191.66 79 192.32 79 193 79 C193 79.66 193 80.32 193 81 C193.99 81.33 194.98 81.66 196 82 C197.4 83.39 197.4 83.39 198.94 85.25 C201.27 88.02 203.65 90.72 206.12 93.35 C206.94 94.22 206.94 94.22 207.78 95.11 C208.88 96.28 209.98 97.45 211.09 98.61 C215 102.78 215 102.78 215 105 C215.66 105 216.32 105 217 105 C218.02 106.66 219.02 108.32 220 110 C220.66 110.33 221.32 110.66 222 111 C223.03 112.65 224.02 114.32 225 116 C225.89 117.38 226.79 118.76 227.7 120.14 C228.19 120.88 228.67 121.62 229.17 122.38 C230.19 123.93 231.21 125.48 232.24 127.03 C232.72 127.76 233.2 128.5 233.7 129.26 C234.14 129.93 234.58 130.6 235.04 131.29 C236 133 236 133 236 135 C236.99 135.33 237.98 135.66 239 136 C240.27 138.22 241.37 140.37 242.44 142.69 C244.65 147.41 247.05 151.67 250 156 C253.02 161.39 255.42 166.83 257.25 172.71 C258.07 175.21 259.01 177.63 260 180.06 C260.34 180.91 260.68 181.75 261.04 182.62 C261.35 183.41 261.67 184.19 262 185 C271.58 209.17 271.58 209.17 272.5 220.12 C272.94 223.57 273.63 225.87 275 229 C275.67 231.33 276.34 233.67 277 236 C278.41 238.83 279.99 238.91 282.94 239.94 C283.93 240.29 284.93 240.63 285.95 240.99 C289.42 242.14 292.9 243.2 296.42 244.19 C299.17 245.05 301.84 246.07 304.54 247.1 C309.84 249.04 315.21 250.78 320.56 252.56 C321.76 252.96 322.95 253.36 324.18 253.77 C329.76 255.63 335.33 257.43 341 259 C342.34 259.43 343.67 259.86 345 260.31 C345.75 260.57 346.51 260.82 347.28 261.08 C348.63 261.54 348.63 261.54 350 262 C351.84 262.61 353.69 263.23 355.53 263.84 C356.84 264.28 358.15 264.72 359.46 265.16 C362.27 266.1 365.07 267.02 367.89 267.92 C373.8 269.8 373.8 269.8 376 272 C376.1 273.94 376.1 273.94 375 276 C372.45 277.2 370.1 278.13 367.44 279 C365.97 279.51 364.5 280.03 363.04 280.54 C361.98 280.91 361.98 280.91 360.91 281.29 C358.63 282.14 356.51 283.16 354.38 284.31 C351.07 285.96 348.61 286.46 345 287 C343.39 287.66 341.78 288.32 340.19 289.04 C336.21 290.78 332.14 292.27 328.09 293.82 C326.14 294.56 324.21 295.33 322.28 296.12 C320 297 320 297 317.12 297.44 C313.44 298.1 310.43 299.5 307 301 C304.67 301.68 302.34 302.35 300 303 C298.6 303.41 297.2 303.83 295.81 304.25 C295.09 304.47 294.37 304.68 293.63 304.9 C292.17 305.34 290.7 305.79 289.23 306.23 C285.17 307.44 281.21 308.41 277 309 C275.63 317.02 275.63 317.02 274.44 325.06 C274 328 274 328 273 331 C272.69 332.5 272.4 334 272.12 335.5 C269.94 346.56 266.43 357.27 263 368 C262.66 369.08 262.32 370.16 261.96 371.27 C259.98 377.41 257.68 383.34 255.14 389.27 C254.22 391.46 253.43 393.63 252.69 395.88 C251.03 400.43 248.5 404.52 246.06 408.7 C243.15 413.69 240.5 418.78 238 424 C237.34 424 236.68 424 236 424 C235.73 424.72 235.46 425.43 235.19 426.17 C233.98 429.04 232.59 431.63 231 434.31 C230.48 435.2 229.97 436.08 229.44 436.99 C228.73 437.98 228.73 437.98 228 439 C227.34 439 226.68 439 226 439 C225.85 439.9 225.85 439.9 225.69 440.81 C224.89 443.35 223.93 444.22 222 446 C221.48 446.72 220.97 447.44 220.44 448.19 C219.96 448.79 219.49 449.38 219 450 C218.34 450 217.68 450 217 450 C216.9 450.58 216.79 451.17 216.68 451.77 C215.9 454.34 214.82 455.73 213.06 457.75 C212.54 458.36 212.01 458.98 211.47 459.61 C210 461 210 461 208 461 C207.67 461.82 207.67 461.82 207.33 462.66 C205.59 465.72 203.25 468.01 200.77 470.46 C199.99 471.24 199.99 471.24 199.2 472.03 C198.11 473.11 197.02 474.2 195.92 475.28 C194.26 476.92 192.61 478.57 190.96 480.22 C189.9 481.28 188.83 482.34 187.77 483.4 C187.28 483.89 186.79 484.38 186.29 484.88 C183.85 487.28 181.36 489.56 178.7 491.72 C175.98 493.71 175.98 493.71 175 496 C173.68 496 172.36 496 171 496 C170.67 496.99 170.34 497.98 170 499 C168.63 499.98 167.25 500.95 165.82 501.84 C163.83 503.11 161.92 504.46 160.01 505.84 C159.3 506.35 158.6 506.85 157.87 507.37 C156.42 508.41 154.98 509.45 153.54 510.49 C140.21 520 140.21 520 136 520 C136 520.66 136 521.32 136 522 C135.37 522.3 134.73 522.6 134.08 522.91 C131.14 524.32 128.19 525.72 125.25 527.12 C124.19 527.63 123.14 528.13 122.05 528.65 C116.72 531.2 111.43 533.78 106.19 536.5 C101.26 538.99 96.32 540.56 91 542 C89.35 542.51 87.7 543.03 86.06 543.56 C85.35 543.79 84.64 544.02 83.91 544.25 C81.72 545.03 81.72 545.03 79 547 C77.35 547.39 75.67 547.71 74 548 C71.04 548.63 68.08 549.28 65.12 549.94 C64.35 550.11 63.57 550.28 62.77 550.45 C58.13 551.48 53.57 552.67 49 554 C47.36 554.39 45.71 554.77 44.06 555.12 C42.9 555.38 42.9 555.38 41.72 555.63 C41.15 555.75 40.59 555.88 40 556 C39.82 556.74 39.64 557.48 39.45 558.24 C34.72 577.32 34.72 577.32 31.82 584.69 C29.7 590.64 28.02 596.82 26.53 602.96 C26.01 604.97 25.4 606.91 24.73 608.87 C24.48 609.6 24.24 610.34 23.98 611.09 C23.72 611.87 23.46 612.64 23.19 613.44 C18.09 628.63 13.31 643.94 9.71 659.57 C9 662 9 662 7 665 C4.69 664.67 2.38 664.34 0 664 C-2.54 655.34 -4.87 646.66 -6.97 637.89 C-7.87 634.33 -9.01 630.87 -10.2 627.4 C-11.65 623.05 -12.93 618.64 -14.25 614.25 C-16.6 606.45 -19.07 598.71 -21.69 591 C-25.07 581.01 -28.05 571 -30.06 560.62 C-30.53 558.83 -30.53 558.83 -31 557 C-31.99 556.67 -32.98 556.34 -34 556 C-34.33 555.67 -34.66 555.34 -35 555 C-36.45 554.63 -37.91 554.3 -39.38 554 C-42.01 553.45 -44.44 552.85 -47 552 C-47.79 551.84 -48.58 551.69 -49.39 551.52 C-55.26 550.35 -60.96 548.37 -66.62 546.44 C-69.37 545.5 -71.97 544.78 -74.81 544.12 C-79.41 543.03 -83.64 541.16 -87.97 539.3 C-90.75 538.11 -93.55 536.98 -96.38 535.88 C-100.02 534.43 -103.49 532.76 -107 531 C-109 530.32 -111 529.65 -113 529 C-114.35 528.36 -115.69 527.71 -117 527 C-117 526.34 -117 525.68 -117 525 C-120.62 523.51 -124.28 522.21 -128 521 C-128 520.34 -128 519.68 -128 519 C-129.98 518.34 -131.96 517.68 -134 517 C-134 516.34 -134 515.68 -134 515 C-134.72 514.73 -135.43 514.46 -136.17 514.19 C-139.04 512.98 -141.63 511.59 -144.31 510 C-145.2 509.48 -146.08 508.97 -146.99 508.44 C-147.65 507.96 -148.32 507.49 -149 507 C-149 506.34 -149 505.68 -149 505 C-149.7 504.78 -150.39 504.55 -151.11 504.32 C-154.65 502.7 -157.3 500.42 -160.19 497.88 C-161.34 496.88 -162.49 495.88 -163.64 494.89 C-164.21 494.4 -164.77 493.91 -165.36 493.4 C-167.67 491.42 -170.05 489.52 -172.44 487.62 C-173.24 486.99 -174.04 486.35 -174.86 485.7 C-176.14 484.68 -177.42 483.68 -178.7 482.68 C-182.32 479.81 -185.17 476.55 -188.14 473.05 C-190.02 470.98 -191.99 469.19 -194.12 467.38 C-198.23 463.88 -201.46 459.99 -204.75 455.73 C-205.37 454.93 -205.99 454.13 -206.62 453.31 C-207.19 452.57 -207.76 451.82 -208.35 451.05 C-209.93 449 -209.93 449 -211.67 447.37 C-213.31 445.68 -213.6 444.29 -214 442 C-214.66 442 -215.32 442 -216 442 C-216.94 440.27 -217.89 438.55 -218.83 436.82 C-219.92 434.97 -219.92 434.97 -221.43 433.59 C-224.98 430 -227.36 425.28 -230 421 C-230.5 420.21 -231 419.43 -231.51 418.62 C-235.86 411.59 -239.47 404.23 -243.1 396.81 C-244.24 394.52 -245.44 392.26 -246.62 390 C-251.19 380.87 -254.57 371.01 -257.36 361.21 C-258 359.01 -258.74 356.85 -259.5 354.69 C-263.54 342.68 -266.38 329.42 -267.56 316.81 C-268.04 312.58 -268.04 312.58 -270 309 C-272.26 307.9 -272.26 307.9 -274.88 307.31 C-275.74 307.08 -276.6 306.85 -277.49 306.61 C-278.32 306.41 -279.15 306.21 -280 306 C-295.11 302.3 -310.64 298.15 -325.02 292.2 C-329.09 290.56 -333.2 289.07 -337.31 287.56 C-360.01 279.23 -360.01 279.23 -368 275 C-367.68 273.1 -367.68 273.1 -367 271 C-362.37 268.54 -357.47 267.2 -352.45 265.74 C-349.71 264.91 -347.04 263.91 -344.36 262.88 C-335.16 259.47 -325.75 256.56 -316.37 253.7 C-313.67 252.87 -311.02 252.01 -308.41 250.95 C-305.68 249.87 -302.98 249.22 -300.12 248.56 C-295.49 247.44 -291.38 245.91 -287 244 C-284.33 243.22 -281.64 242.52 -278.94 241.84 C-277.97 241.57 -277 241.29 -276 241 C-275.32 240.85 -274.65 240.71 -273.95 240.56 C-271.67 239.94 -269.95 239.33 -268 238 C-266.52 235.1 -266.2 232.15 -265.81 228.94 C-265.53 227.13 -265.23 225.33 -264.93 223.52 C-264.79 222.61 -264.64 221.69 -264.49 220.75 C-263.72 216.44 -262.58 212.26 -261.38 208.06 C-261.17 207.32 -260.96 206.59 -260.75 205.83 C-259.69 202.12 -258.44 198.57 -257 195 C-256.62 193.01 -256.28 191.01 -256 189 C-255.34 189 -254.68 189 -254 189 C-253.89 188.15 -253.77 187.3 -253.65 186.42 C-251.25 173.83 -244.12 162.16 -238.08 151.02 C-237.14 149.26 -236.24 147.47 -235.35 145.69 C-234.19 143.38 -232.96 141.23 -231.56 139.06 C-229.94 136.52 -228.4 133.96 -226.94 131.31 C-225.16 128.27 -223.23 125.72 -221 123 C-220.41 122.1 -219.83 121.19 -219.23 120.26 C-216.4 116.12 -213.19 112.44 -209.89 108.68 C-207.49 105.9 -205.53 103.33 -204 100 C-202.36 98.31 -200.69 96.65 -199 95 C-197.97 93.82 -196.95 92.63 -195.94 91.44 C-192.69 87.7 -189.29 84.14 -185.81 80.62 C-185.3 80.1 -184.79 79.58 -184.26 79.04 C-181.65 76.41 -179.31 74.6 -176 73 C-174.24 71.2 -174.24 71.2 -172.62 69.12 C-169.67 65.61 -166.86 63.43 -163 61 C-162.34 60.01 -161.68 59.02 -161 58 C-159.34 56.99 -157.67 55.99 -156 55 C-155.67 54.34 -155.34 53.68 -155 53 C-153.44 51.93 -153.44 51.93 -151.56 50.88 C-150.95 50.52 -150.33 50.17 -149.69 49.8 C-148 49 -148 49 -146 49 C-146 48.34 -146 47.68 -146 47 C-145.09 46.49 -144.19 45.98 -143.25 45.46 C-142.02 44.77 -140.79 44.07 -139.56 43.38 C-138.59 42.82 -138.59 42.82 -137.6 42.26 C-134.22 40.33 -130.97 38.34 -127.81 36.06 C-122.6 32.47 -116.83 29.96 -111.09 27.33 C-107.06 25.48 -103.13 23.56 -99.27 21.37 C-95.98 19.51 -92.75 17.96 -89.19 16.69 C-87.85 16.2 -87.85 16.2 -86.48 15.7 C-84 15 -84 15 -80 15 C-80 14.34 -80 13.68 -80 13 C-75.67 11.65 -71.34 10.32 -67 9 C-65.31 8.48 -65.31 8.48 -63.58 7.95 C-56 5.69 -48.48 4.05 -40.69 2.71 C-37.01 2.06 -37.01 2.06 -33.55 0.98 C-29.59 -0.11 -25.76 -0.68 -21.69 -1.12 C-20.94 -1.21 -20.2 -1.29 -19.44 -1.38 C-4.46 -2.97 -4.46 -2.97 0 0 Z M207 281 C211 282 211 282 211 282 Z M56 461 C57 464 57 464 57 464 Z M56 465 C56.33 465.66 56.66 466.32 57 467 C57.33 466.34 57.66 465.68 58 465 C57.34 465 56.68 465 56 465 Z " fill="#244551" transform="translate(634,385)"/>
<path d="M0 0 C0.33 0.99 0.66 1.98 1 3 C1.66 3 2.32 3 3 3 C5.65 8.3 4.55 16.77 3 22.38 C1.97 26.1 1.93 29.16 2 33 C1.69 34.34 1.35 35.67 1 37 C0.26 40.72 -0.46 44.45 -1.18 48.18 C-1.97 51.85 -2.95 55.4 -4 59 C-4.77 62.27 -5.5 65.54 -6.22 68.82 C-6.99 71.95 -7.95 74.95 -9 78 C-9.46 79.56 -9.92 81.12 -10.38 82.69 C-13.27 92.38 -17.04 101.7 -21 111 C-21.28 111.66 -21.56 112.32 -21.84 113 C-23.48 116.85 -25.19 120.66 -26.9 124.48 C-28.54 128.25 -30.05 132.08 -31.56 135.91 C-33.04 139.08 -34.76 141.9 -36.65 144.84 C-38.99 148.58 -41.11 152.45 -43.25 156.31 C-43.7 157.11 -44.14 157.91 -44.6 158.73 C-45.03 159.49 -45.45 160.26 -45.89 161.05 C-46.27 161.74 -46.65 162.43 -47.05 163.13 C-48.13 165.14 -48.13 165.14 -49 168 C-49.66 168 -50.32 168 -51 168 C-52.07 170.12 -53.11 172.25 -54.11 174.4 C-56.52 179.5 -58.81 183.14 -63 187 C-64.01 188.66 -65.01 190.33 -66 192 C-70.44 198.18 -75.08 204.19 -80 210 C-80.66 210.99 -81.32 211.98 -82 213 C-82.66 213 -83.32 213 -84 213 C-84.25 213.75 -84.51 214.49 -84.77 215.26 C-86.08 218.17 -87.37 219.65 -89.69 221.81 C-92.35 224.32 -94.81 226.91 -97.19 229.68 C-101.32 234.45 -105.77 238.88 -110.25 243.31 C-111.05 244.11 -111.85 244.91 -112.68 245.73 C-114.16 247.2 -115.64 248.67 -117.12 250.13 C-118.29 251.3 -119.46 252.46 -120.63 253.64 C-122.35 255.35 -124.13 257 -125.94 258.62 C-126.61 259.24 -127.28 259.85 -127.96 260.48 C-130.03 262.03 -131.48 262.58 -134 263 C-134.07 263.6 -134.15 264.19 -134.23 264.81 C-135.27 267.77 -136.72 268.45 -139.38 270.06 C-142.27 271.84 -144.67 273.52 -147 276 C-150.76 279.29 -154.69 282.32 -158.69 285.31 C-159.62 286.01 -160.55 286.71 -161.51 287.43 C-164 289 -164 289 -167 289 C-167 289.66 -167 290.32 -167 291 C-168.32 291.33 -169.64 291.66 -171 292 C-171 292.66 -171 293.32 -171 294 C-172.32 294 -173.64 294 -175 294 C-175 294.66 -175 295.32 -175 296 C-182.22 300.14 -189.47 304.22 -196.73 308.31 C-197.72 308.87 -198.71 309.43 -199.73 310 C-200.62 310.51 -201.51 311.01 -202.43 311.53 C-204.17 312.53 -205.89 313.55 -207.59 314.61 C-210.61 316.35 -213.64 317.14 -217 318 C-217 318.66 -217 319.32 -217 320 C-218.39 320.43 -218.39 320.43 -219.81 320.88 C-223.1 321.89 -223.1 321.89 -226 324 C-227.67 324.46 -227.67 324.46 -229.38 324.94 C-232.91 325.8 -232.91 325.8 -235.38 327.44 C-238.3 329.18 -241.12 330.1 -244.35 331.12 C-247.41 332.14 -250.38 333.31 -253.38 334.5 C-258.35 336.44 -263.29 337.99 -268.45 339.32 C-271.6 340.16 -274.67 341.2 -277.76 342.25 C-284.5 344.51 -291.34 346.4 -298.2 348.24 C-300.1 348.76 -302 349.28 -303.89 349.82 C-308.94 351.24 -313.8 352.35 -319 353 C-319.99 353.33 -320.98 353.66 -322 354 C-333.89 356.06 -333.89 356.06 -338.38 353.81 C-340.44 351.5 -340.63 350.07 -341 347 C-340.61 344.24 -340.61 344.24 -339.89 341.25 C-339.63 340.14 -339.37 339.04 -339.1 337.9 C-338.82 336.76 -338.54 335.62 -338.25 334.44 C-337.98 333.32 -337.72 332.2 -337.45 331.05 C-336.91 328.81 -336.36 326.57 -335.81 324.33 C-335.27 322.1 -334.75 319.87 -334.27 317.63 C-334.03 316.56 -333.79 315.5 -333.55 314.41 C-333.24 312.99 -333.24 312.99 -332.93 311.54 C-331.82 308.51 -330.46 307.06 -328 305 C-321.85 302.24 -315.28 300.76 -308.67 299.55 C-303.7 298.52 -298.85 297.02 -293.99 295.58 C-291.85 294.96 -289.71 294.34 -287.57 293.73 C-286.07 293.3 -284.57 292.87 -283.06 292.44 C-282.02 292.14 -282.02 292.14 -280.95 291.84 C-276.47 290.54 -272.28 288.89 -268 287 C-265.94 286.22 -263.88 285.45 -261.81 284.69 C-256.25 282.57 -251.01 280.07 -245.72 277.34 C-243.38 276.19 -241.09 275.24 -238.62 274.38 C-234.94 272.98 -232.25 271.21 -229 269 C-227.43 268.19 -225.84 267.4 -224.25 266.62 C-219.66 264.39 -215.35 261.85 -211.03 259.14 C-209 258 -209 258 -207 258 C-207 257.34 -207 256.68 -207 256 C-206.05 255.46 -205.1 254.93 -204.12 254.38 C-202.75 253.58 -201.37 252.79 -200 252 C-199.23 251.56 -198.46 251.13 -197.66 250.68 C-192.17 247.51 -187.26 243.96 -182.37 239.93 C-180.29 238.23 -178.17 236.64 -176 235.06 C-171.91 232.03 -168.19 228.65 -164.43 225.21 C-162.34 223.31 -160.22 221.46 -158.06 219.62 C-152.77 215.03 -147.92 209.99 -143 205 C-142 204 -141 203 -140 202 C-138.86 200.86 -137.72 199.72 -136.58 198.57 C-135.37 197.37 -134.15 196.18 -132.92 194.99 C-128.47 190.64 -124.43 186.23 -120.7 181.24 C-119.01 179.01 -117.22 176.87 -115.42 174.72 C-112.63 171.34 -109.98 167.85 -107.31 164.38 C-106.73 163.62 -106.15 162.87 -105.55 162.1 C-105 161.37 -104.44 160.65 -103.86 159.9 C-103.36 159.25 -102.86 158.59 -102.34 157.92 C-101.01 156.01 -99.98 154.1 -99 152 C-98.34 152 -97.68 152 -97 152 C-96.88 151.42 -96.77 150.84 -96.64 150.24 C-95.96 147.87 -95.04 146.24 -93.69 144.19 C-90.53 139.27 -87.62 134.32 -85.06 129.06 C-83.69 126.26 -82.18 123.63 -80.5 121 C-76.16 114.19 -72.58 106.82 -70.06 99.14 C-69.05 96.16 -67.88 93.32 -66.62 90.44 C-64.38 85.11 -62.6 79.75 -60.99 74.2 C-60.24 71.79 -59.44 69.46 -58.54 67.1 C-57.03 63.16 -55.75 59.18 -54.56 55.12 C-54.35 54.4 -54.14 53.68 -53.92 52.93 C-52.37 47.55 -51.07 42.15 -49.88 36.69 C-49.71 35.94 -49.54 35.18 -49.37 34.41 C-48.65 31.07 -47.95 27.73 -47.3 24.38 C-45.28 14.8 -45.28 14.8 -41.11 12 C-37.1 10.1 -32.95 8.67 -28.75 7.27 C-24.07 5.69 -19.51 3.86 -14.94 2.02 C-9.94 0.29 -5.26 -0.13 0 0 Z " fill="#244551" transform="translate(1015,702)"/>
<path d="M0 0 C3.34 0.84 6.53 1.98 9.75 3.19 C10.63 3.51 11.5 3.82 12.4 4.15 C25.75 9.04 25.75 9.04 32 12 C33.36 12.63 33.36 12.63 34.75 13.27 C37 15 37 15 37.75 17.8 C37.83 18.86 37.92 19.91 38 21 C38.33 23.04 38.67 25.08 39 27.12 C39.25 28.64 39.25 28.64 39.5 30.2 C39.91 32.5 40.41 34.73 41 37 C41.3 38.33 41.59 39.67 41.88 41 C44.48 52.71 47.82 63.86 51.97 75.11 C53.03 78.07 53.98 81.06 54.94 84.06 C56.51 88.85 58.46 93.22 60.85 97.65 C62 100 62 100 62.87 102.69 C64.4 107.16 66.44 111.32 68.5 115.56 C73.37 125.67 73.37 125.67 75 130 C75.66 130 76.32 130 77 130 C77.99 132.97 78.98 135.94 80 139 C80.66 139 81.32 139 82 139 C82.4 139.74 82.8 140.47 83.21 141.23 C83.74 142.21 84.27 143.18 84.81 144.19 C85.6 145.63 85.6 145.63 86.39 147.11 C89.02 152.11 89.02 152.11 92.5 156.5 C94.46 158.46 95.69 160.57 97 163 C97 163.66 97 164.32 97 165 C97.66 165 98.32 165 99 165 C101.32 168.19 103.35 171.42 105 175 C105.66 175 106.32 175 107 175 C108.11 176.57 108.11 176.57 109.31 178.69 C111.52 182.35 113.89 185.03 117 188 C118.28 189.43 119.55 190.87 120.81 192.31 C125.1 197.09 129.55 201.69 134.06 206.25 C134.72 206.92 135.38 207.6 136.06 208.29 C139.9 212.13 143.82 215.53 148.25 218.69 C150.75 220.57 152.82 222.76 155 225 C155.66 225.33 156.32 225.66 157 226 C157 226.66 157 227.32 157 228 C157.66 228.21 158.32 228.41 159 228.62 C163.07 230.49 166.69 232.98 170 236 C170 236.66 170 237.32 170 238 C170.73 238.25 171.46 238.51 172.21 238.77 C175.2 240.09 177.21 241.63 179.69 243.75 C184.55 247.73 189.57 250.88 195 254 C197.51 255.49 200 257 202.5 258.5 C204.32 259.59 206.15 260.69 207.97 261.78 C209.42 262.65 210.87 263.54 212.31 264.43 C218.39 268.16 224.61 271.39 231.06 274.44 C232.06 274.91 233.06 275.39 234.09 275.88 C246.14 281.55 258.4 286.66 271 291 C272.21 291.42 273.41 291.85 274.65 292.28 C280.98 294.47 287.22 296.48 293.85 297.54 C296 298 296 298 298.31 298.96 C302.81 300.7 307.57 301.23 312.31 302.02 C317.14 303.3 320.48 305.48 324 309 C324.44 310.86 324.44 310.86 324.71 313.11 C324.82 313.94 324.93 314.77 325.04 315.63 C325.15 316.51 325.26 317.4 325.38 318.31 C326.36 325.61 327.81 332.23 330.14 339.22 C331.39 343.25 331.93 346.78 332 351 C330.9 352.69 330.9 352.69 329 354 C326.07 354.58 326.07 354.58 322.69 354.81 C321.58 354.9 320.47 354.99 319.32 355.08 C315.77 354.99 313.32 354.2 310 353 C306.2 352.2 302.38 351.49 298.56 350.78 C295.48 350.11 292.89 349.21 290 348 C288.53 347.63 287.05 347.3 285.56 347 C283.01 346.49 280.63 345.88 278.16 345.05 C274.76 343.92 271.35 343.05 267.88 342.19 C261.91 340.65 256.36 338.64 250.71 336.16 C248.26 335.11 245.84 334.24 243.31 333.44 C239.45 332.2 235.81 330.65 232.12 328.97 C230.24 328.11 228.34 327.3 226.44 326.5 C223.96 325.42 221.59 324.3 219.19 323.06 C216.38 321.63 213.59 320.46 210.62 319.38 C199.22 314.92 188.48 308.12 178.25 301.46 C175.23 299.51 172.14 297.75 169 296 C167.69 295.25 166.37 294.5 165.06 293.75 C164.05 293.17 163.04 292.6 162 292 C162 291.34 162 290.68 162 290 C161.26 289.71 160.51 289.42 159.75 289.12 C155.19 287.26 152.5 285.5 149 282 C146.87 280.76 146.87 280.76 145 280 C145 279.34 145 278.68 145 278 C144.28 277.75 143.56 277.5 142.81 277.25 C133.91 273.29 126.22 264.33 119.1 257.82 C117.13 255.96 117.13 255.96 115 255 C115 254.34 115 253.68 115 253 C114.41 252.91 113.81 252.82 113.2 252.73 C110.44 251.81 109.55 250.64 107.75 248.38 C105.33 245.47 102.89 242.93 100 240.5 C96.5 237.54 93.55 234.33 90.58 230.84 C89.29 229.33 87.9 227.9 86.5 226.5 C83.15 223.15 80.09 219.58 77 216 C76.48 215.41 75.96 214.82 75.43 214.21 C65 202.25 65 202.25 65 199 C64.34 199 63.68 199 63 199 C59 193.59 59 193.59 59 191 C58.34 191 57.68 191 57 191 C55.26 188.36 53.62 185.71 52 183 C48.62 177.56 45.18 172.2 41.44 167 C37.83 161.88 34.9 156.55 32 151 C31.22 149.52 30.43 148.05 29.65 146.57 C27.08 141.72 24.53 136.87 22 132 C21.65 131.32 21.29 130.65 20.93 129.95 C17.48 123.32 14.38 116.77 11.96 109.7 C10.94 106.82 9.77 104.05 8.56 101.25 C4.68 92.06 1.73 82.58 -1 73 C-1.48 71.45 -1.96 69.91 -2.44 68.36 C-4.97 60.21 -7.41 52.24 -8.57 43.75 C-9.03 40.79 -9.75 37.96 -10.5 35.06 C-11.91 29.08 -12.72 23.1 -13.38 17 C-13.54 15.64 -13.54 15.64 -13.71 14.25 C-14.09 10.28 -14.3 7.72 -12.73 4 C-8.98 -0.35 -5.41 -0.63 0 0 Z " fill="#244551" transform="translate(270,702)"/>
<path d="M0 0 C0.48 0.4 0.97 0.8 1.47 1.21 C10.37 8.24 17.72 9.5 29 10 C31.75 16.18 32.3 21.63 32.31 28.31 C32.32 29.1 32.32 29.89 32.33 30.7 C32.24 37.97 32.24 37.97 30 41 C27.88 41.75 27.88 41.75 26 42 C26 42.66 26 43.32 26 44 C25.43 44.18 24.86 44.36 24.28 44.55 C15.59 47.37 15.59 47.37 7.5 51.56 C5 53 5 53 1.62 53.88 C-2.07 55.02 -4.11 56.41 -7.12 58.71 C-9.83 60.57 -12.75 61.75 -15.79 63.02 C-17.94 63.97 -19.92 65.05 -21.94 66.25 C-25 68 -25 68 -27 68 C-27 68.66 -27 69.32 -27 70 C-27.7 70.33 -28.4 70.65 -29.12 70.99 C-30.03 71.43 -30.94 71.86 -31.88 72.31 C-32.78 72.74 -33.68 73.17 -34.62 73.61 C-37.26 74.92 -37.26 74.92 -39 78 C-41.21 79.21 -41.21 79.21 -43.81 80.38 C-48.04 82.39 -50.81 84.53 -54 88 C-56.56 89.73 -58.85 90.94 -61.75 92 C-62.86 92.5 -62.86 92.5 -64 93 C-64.33 93.99 -64.66 94.98 -65 96 C-66.98 97.36 -68.98 98.69 -71 100 C-73.12 101.75 -75.12 103.62 -77.12 105.5 C-77.64 105.97 -78.15 106.45 -78.68 106.93 C-80.86 108.97 -83.02 111.02 -85.13 113.14 C-86.96 114.96 -88.85 116.64 -90.81 118.31 C-98.21 124.22 -98.21 124.22 -103 132 C-104.49 133.39 -104.49 133.39 -106.31 134.81 C-109.62 137.53 -111.66 140.41 -114 144 C-115.66 145.34 -117.33 146.67 -119 148 C-120.02 149.66 -121.02 151.32 -122 153 C-122.66 153 -123.32 153 -124 153 C-124.25 153.7 -124.5 154.4 -124.75 155.12 C-128.22 163.11 -128.22 163.11 -132 165 C-133.13 167.02 -133.13 167.02 -134 169 C-134.66 169 -135.32 169 -136 169 C-136.25 169.68 -136.5 170.36 -136.75 171.06 C-138.24 174.57 -140.07 177.72 -142 181 C-142.66 181 -143.32 181 -144 181 C-144.25 181.68 -144.5 182.36 -144.75 183.06 C-146.24 186.57 -148.08 189.71 -150 193 C-150.33 193.66 -150.66 194.32 -151 195 C-151.66 195 -152.32 195 -153 195 C-153.37 196.24 -153.37 196.24 -153.74 197.51 C-155.19 201.54 -157.08 205.13 -159.12 208.88 C-159.94 210.38 -160.75 211.9 -161.55 213.41 C-161.96 214.17 -162.37 214.93 -162.79 215.72 C-169.29 227.99 -175.47 240.41 -180.1 253.51 C-181.54 257.48 -183.26 261.33 -184.97 265.19 C-187.45 271.04 -189.01 276.83 -190.35 283.03 C-190.84 285.27 -191.43 287.49 -192.06 289.69 C-192.85 292.46 -193.45 295.17 -194 298 C-196.48 310.55 -196.48 310.55 -201 314 C-205.65 316.78 -209.65 318.14 -215 319 C-219.21 320.52 -223.34 322.25 -227.42 324.09 C-230.39 325.14 -233.05 325.45 -236.19 325.69 C-237.23 325.77 -238.28 325.86 -239.36 325.95 C-242 326 -242 326 -244 325 C-244 324.34 -244 323.68 -244 323 C-244.99 322.67 -245.98 322.34 -247 322 C-245.77 295.64 -245.77 295.64 -242 283 C-241.55 281.23 -241.12 279.46 -240.69 277.69 C-237.44 264.71 -233.95 252.25 -228.77 239.9 C-227.4 236.53 -226.18 233.1 -224.94 229.69 C-222.99 224.39 -220.84 219.29 -218.18 214.31 C-216.63 211.27 -215.32 208.14 -214 205 C-212.86 202.29 -211.72 199.58 -210.56 196.88 C-210.28 196.19 -209.99 195.5 -209.69 194.79 C-207.92 190.64 -205.92 187.48 -203 184 C-202 182.29 -201.04 180.56 -200.12 178.81 C-197.25 173.43 -194.2 168.19 -191 163 C-190.44 162.09 -189.89 161.18 -189.31 160.25 C-185.95 154.86 -182.41 149.79 -178.38 144.88 C-176.81 142.94 -176.81 142.94 -176 140 C-175.02 138.98 -174.02 137.98 -173 137 C-172.67 136.34 -172.34 135.68 -172 135 C-171.34 135 -170.68 135 -170 135 C-169.8 134.33 -169.61 133.66 -169.4 132.98 C-167.45 128.83 -164.6 125.77 -161.56 122.38 C-160.98 121.71 -160.39 121.04 -159.79 120.35 C-155.51 115.5 -155.51 115.5 -153.39 113.44 C-151.85 111.96 -151.85 111.96 -150.62 109.62 C-148.26 105.8 -145.07 103.01 -141.81 99.94 C-139.95 98.15 -139.95 98.15 -139.12 96.09 C-137.82 93.67 -136.41 92.38 -134.31 90.62 C-133.6 90.02 -132.88 89.42 -132.15 88.79 C-131.44 88.2 -130.73 87.61 -130 87 C-128.81 85.98 -127.62 84.96 -126.44 83.94 C-124.7 82.44 -122.95 80.96 -121.18 79.5 C-118.32 77.12 -115.74 74.81 -113.44 71.88 C-111 69 -111 69 -108.27 67.18 C-104.05 64.37 -100.37 61.08 -96.59 57.71 C-92.32 54 -92.32 54 -89 54 C-89 53.34 -89 52.68 -89 52 C-87.21 50.63 -87.21 50.63 -84.81 49.12 C-81.37 46.91 -78.17 44.59 -75 42 C-71.12 39.11 -67.19 36.43 -63 34 C-59.51 31.96 -56.19 29.75 -52.88 27.44 C-44.63 21.92 -35.84 17.48 -27 13 C-26.11 12.55 -25.22 12.09 -24.3 11.63 C-21.62 10.27 -18.94 8.91 -16.25 7.56 C-15.43 7.15 -14.61 6.74 -13.76 6.31 C-9.23 4.05 -4.68 1.94 0 0 Z " fill="#244551" transform="translate(504,293)"/>
<path d="M0 0 C2.64 0.99 5.28 1.98 8 3 C8 3.66 8 4.32 8 5 C8.69 5.1 9.37 5.2 10.08 5.3 C13.57 6.14 16.57 7.56 19.75 9.19 C20.43 9.53 21.1 9.87 21.8 10.23 C38.5 18.81 54.84 27.89 70 39 C70.55 39.4 71.1 39.8 71.66 40.21 C74.04 41.94 76.41 43.68 78.77 45.44 C80.79 46.85 82.76 47.97 85 49 C85 49.66 85 50.32 85 51 C85.68 51.21 86.36 51.41 87.06 51.62 C90.41 53.19 92.73 55.19 95.45 57.66 C96.98 59.09 96.98 59.09 99 60 C99 60.66 99 61.32 99 62 C99.68 62.19 100.36 62.37 101.06 62.56 C104.52 64.25 106.51 66.35 109.14 69.1 C110.86 70.86 112.63 72.46 114.5 74.06 C118.74 77.73 122.88 81.51 127 85.31 C127.68 85.94 128.37 86.56 129.07 87.2 C129.71 87.79 130.34 88.38 131 88.99 C131.58 89.52 132.15 90.05 132.75 90.6 C134 92 134 92 134 94 C134.66 94 135.32 94 136 94 C137.55 95.57 137.55 95.57 139.31 97.69 C141.44 100.2 143.56 102.61 145.94 104.88 C148 107 148 107 148 109 C148.99 109.33 149.98 109.66 151 110 C152.76 112.07 154.39 114.13 156 116.31 C156.44 116.89 156.88 117.48 157.33 118.08 C158.56 119.71 159.78 121.36 161 123 C161.6 123.76 162.2 124.51 162.81 125.29 C164 127 164 127 164 129 C164.66 129 165.32 129 166 129 C166.33 130.32 166.66 131.64 167 133 C167.66 133 168.32 133 169 133 C170.29 134.46 170.29 134.46 171.62 136.38 C172.07 137 172.52 137.63 172.98 138.27 C174 140 174 140 174 142 C174.66 142 175.32 142 176 142 C177.25 143.53 177.25 143.53 178.64 145.66 C179.16 146.43 179.67 147.21 180.2 148.01 C180.73 148.83 181.26 149.65 181.81 150.5 C182.33 151.29 182.86 152.08 183.39 152.9 C184.94 155.26 186.47 157.63 188 160 C188.5 160.76 188.99 161.52 189.5 162.31 C189.96 163.02 190.42 163.73 190.89 164.47 C191.5 165.42 191.5 165.42 192.12 166.39 C193 168 193 168 193 170 C193.66 170 194.32 170 195 170 C195.99 173.47 195.99 173.47 197 177 C197.66 177 198.32 177 199 177 C199.67 178.46 200.34 179.92 201 181.38 C201.37 182.19 201.74 183 202.12 183.84 C203 186 203 186 203 188 C203.99 188.33 204.98 188.66 206 189 C207.21 191.19 208.23 193.31 209.21 195.6 C209.51 196.27 209.81 196.93 210.11 197.62 C211.07 199.76 212 201.91 212.94 204.06 C213.87 206.18 214.81 208.3 215.74 210.42 C216.35 211.78 216.95 213.15 217.55 214.52 C219.04 217.89 220.57 221.22 222.25 224.49 C224.14 228.28 225.62 232.07 227 236.06 C227.38 237.16 227.38 237.16 227.78 238.28 C229.85 244.31 231.49 250.38 233.06 256.56 C233.94 259.78 234.99 262.83 236.19 265.94 C237.88 270.37 238.51 274.3 239 279 C239.65 280.67 240.32 282.34 241 284 C241.36 286.33 241.7 288.66 242 291 C242.33 291.99 242.66 292.98 243 294 C243.18 295.71 243.32 297.41 243.44 299.12 C243.73 302.75 244.19 306.16 245.06 309.69 C246.07 313.98 246.45 317.59 246 322 C244.44 324.5 244.44 324.5 242 326 C235.83 326.59 231.05 324.93 225.38 322.81 C224.5 322.49 223.62 322.18 222.71 321.85 C220.14 320.91 217.57 319.96 215 319 C214.31 318.74 213.62 318.49 212.9 318.23 C209.25 316.87 205.6 315.51 202 314 C200.93 313.61 199.86 313.22 198.76 312.82 C196 311 196 311 194.83 307.64 C194.64 306.33 194.45 305.03 194.25 303.69 C193.51 298.9 192.59 294.57 191 290 C190.35 287.48 189.73 284.96 189.12 282.44 C185.88 269.21 181.6 256.69 176 244.28 C174.95 241.89 174 239.49 173.06 237.06 C171.02 231.88 168.55 226.95 166 222 C165.33 220.67 164.66 219.33 164 218 C163.55 217.09 163.09 216.19 162.62 215.25 C162.09 214.18 161.55 213.11 161 212 C160.64 211.32 160.29 210.64 159.92 209.94 C159.55 209.24 159.19 208.54 158.81 207.81 C158.47 207.16 158.12 206.51 157.77 205.83 C157 204 157 204 157 201 C156.34 201 155.68 201 155 201 C154.62 200.27 154.62 200.27 154.22 199.52 C150.21 192.09 145.63 185.06 141 178 C140.29 176.89 139.58 175.78 138.85 174.64 C137.27 171.93 137.27 171.93 135 171 C134.05 169.33 133.09 167.65 132.16 165.97 C130.24 162.72 127.87 159.86 125.5 156.94 C122.11 152.74 118.99 148.5 116 144 C114.35 142.31 112.69 140.65 111 139 C110.24 138.05 109.47 137.1 108.69 136.12 C106.69 133.68 104.53 131.67 102.12 129.62 C99.32 127.24 96.87 124.81 94.5 122 C91.54 118.5 88.33 115.55 84.84 112.59 C83 111 83 111 80.5 108.44 C77.81 105.82 74.96 103.7 71.93 101.49 C69.38 99.52 67.24 97.31 65 95 C64.34 94.67 63.68 94.34 63 94 C63 93.34 63 92.68 63 92 C61.35 91.34 59.7 90.68 58 90 C58 89.34 58 88.68 58 88 C57.26 87.71 56.51 87.42 55.75 87.12 C53.43 86.18 51.22 85.15 49 84 C49 83.34 49 82.68 49 82 C48.45 81.73 47.89 81.47 47.32 81.19 C44.77 79.88 42.33 78.43 39.88 76.94 C36.49 74.87 36.49 74.87 33 73 C31.67 72 30.33 71 29 70 C28.01 69.5 28.01 69.5 27 69 C27 68.34 27 67.68 27 67 C26.47 66.85 25.93 66.71 25.38 66.55 C19.99 64.93 15.58 62.67 10.82 59.69 C7.53 57.72 4.17 55.97 0.75 54.25 C-0.39 53.68 -1.53 53.11 -2.7 52.52 C-5.77 51.11 -8.79 50.04 -12 49 C-13.53 48.33 -15.05 47.65 -16.56 46.94 C-19.7 45.51 -22.55 44.44 -26 44 C-26 43.34 -26 42.68 -26 42 C-26.58 41.77 -27.15 41.55 -27.75 41.31 C-30.7 39.59 -32.11 37.85 -34 35 C-35.17 26.63 -34.17 18.99 -30.84 11.32 C-30.23 10.55 -29.62 9.79 -29 9 C-26 8.65 -26 8.65 -22.44 8.94 C-15.12 9.19 -9.12 8.3 -3.28 3.62 C-1.74 2.16 -1.74 2.16 0 0 Z " fill="#244551" transform="translate(773,293)"/>
<path d="M0 0 C5.84 4.75 10.07 10.61 11.98 17.9 C12.24 21.68 12.19 25.45 12.15 29.25 C12.16 31.48 12.17 33.72 12.17 35.96 C12.18 39.47 12.17 42.98 12.14 46.49 C12.11 49.89 12.13 53.28 12.15 56.68 C12.12 58.26 12.12 58.26 12.09 59.86 C12.02 65.16 12.02 65.16 14.49 69.6 C16.3 70.93 16.3 70.93 18.19 71.91 C20.16 72.99 21.43 74.3 22.98 75.9 C23.64 76.23 24.3 76.56 24.98 76.9 C24.98 77.56 24.98 78.22 24.98 78.9 C25.95 79.21 26.92 79.52 27.92 79.84 C30.98 80.9 30.98 80.9 31.98 81.9 C32.02 81.16 32.06 80.43 32.1 79.67 C32.78 69.58 32.78 69.58 35.98 65.9 C38.63 63.89 39.76 63.88 43.11 64.21 C45.98 64.9 45.98 64.9 47.98 65.9 C49.03 69.03 49.09 71.23 49.09 74.52 C49.11 76.17 49.11 76.17 49.13 77.85 C49.16 80.17 49.16 82.49 49.15 84.81 C48.99 90.56 48.99 90.56 51.37 95.5 C53.19 96.71 53.19 96.71 55.98 97.9 C55.98 98.56 55.98 99.22 55.98 99.9 C58.95 100.89 58.95 100.89 61.98 101.9 C61.98 102.56 61.98 103.22 61.98 103.9 C63.3 104.23 64.62 104.56 65.98 104.9 C65.94 103.93 65.89 102.97 65.84 101.98 C65.81 100.71 65.77 99.45 65.73 98.15 C65.69 96.9 65.64 95.64 65.59 94.35 C65.98 90.9 65.98 90.9 67.74 88.46 C71.33 85.96 73.68 86.55 77.98 86.9 C80.58 88.2 80.93 89.22 81.98 91.9 C82.22 94.42 82.22 94.42 82.22 97.21 C82.24 98.23 82.25 99.24 82.27 100.28 C82.29 102.4 82.29 104.53 82.29 106.65 C82.34 109.49 82.42 112.12 82.98 114.9 C85.35 117.07 85.35 117.07 87.98 117.9 C87.98 118.56 87.98 119.22 87.98 119.9 C88.55 120.17 89.11 120.43 89.69 120.71 C92.14 121.98 94.42 123.39 96.73 124.9 C97.93 125.67 97.93 125.67 99.16 126.46 C99.76 126.94 100.36 127.41 100.98 127.9 C100.98 128.56 100.98 129.22 100.98 129.9 C101.93 130.1 102.88 130.31 103.86 130.52 C106.98 131.9 106.98 131.9 108.14 134.53 C109.04 138.13 109.43 141.51 109.67 145.21 C109.76 146.44 109.84 147.68 109.93 148.95 C109.95 149.92 109.97 150.9 109.98 151.9 C109.65 152.23 109.32 152.56 108.98 152.9 C101.64 152.25 93.7 150.76 87.1 147.45 C83.58 145.69 79.99 144.52 76.23 143.4 C75.53 143.18 74.82 142.97 74.09 142.74 C72.06 142.12 70.02 141.51 67.98 140.9 C67.06 140.62 66.13 140.34 65.18 140.05 C61.69 139 58.2 137.96 54.7 136.93 C53.56 136.59 52.41 136.25 51.23 135.9 C50.19 135.59 49.14 135.28 48.06 134.96 C44.98 133.9 44.98 133.9 42.29 132.5 C37.65 130.25 32.83 128.8 27.92 127.27 C26.94 126.96 25.96 126.65 24.95 126.33 C20.64 124.97 16.43 123.72 11.98 122.9 C11.99 123.71 11.99 124.51 12 125.35 C12.02 128.99 12.03 132.63 12.05 136.27 C12.06 137.54 12.06 138.82 12.07 140.12 C12.08 141.34 12.08 142.55 12.08 143.8 C12.09 144.92 12.09 146.04 12.1 147.19 C11.98 149.9 11.98 149.9 10.98 151.9 C10.63 157.1 10.54 162.31 10.47 167.53 C10.44 169.27 10.39 171.01 10.33 172.75 C9.58 182.48 9.58 182.48 12.66 191.3 C14.71 192.84 16.63 193.89 18.98 194.9 C23.77 198.45 28.43 202.06 32.98 205.9 C33.81 206.56 34.63 207.22 35.48 207.9 C36.31 208.56 37.13 209.22 37.98 209.9 C39.02 210.68 40.05 211.47 41.11 212.27 C45.15 215.96 46.84 219.06 47.28 224.55 C47.24 225.78 47.21 227.01 47.17 228.27 C47.13 230.14 47.13 230.14 47.09 232.05 C47.06 232.99 47.02 233.93 46.98 234.9 C42.09 236 39.39 235.83 34.86 233.76 C26.1 229.75 16.83 226.74 7.61 224.02 C6.88 223.81 6.15 223.59 5.39 223.37 C1.75 222.28 1.75 222.28 -2.02 221.9 C-2.63 222.89 -3.25 223.88 -3.89 224.9 C-4.59 225.89 -5.29 226.88 -6.02 227.9 C-7.34 227.9 -8.66 227.9 -10.02 227.9 C-12.02 224.9 -12.02 224.9 -12.02 221.9 C-17.26 222.34 -21.15 223.75 -25.89 225.99 C-28.55 227.13 -31.17 227.42 -34.02 227.9 C-35.4 228.49 -36.78 229.12 -38.14 229.77 C-45.34 233.11 -53.05 235.3 -61.02 234.9 C-61.68 234.57 -62.34 234.24 -63.02 233.9 C-63.34 227.16 -62.98 221.07 -60.02 214.9 C-57.39 212.77 -57.39 212.77 -54.02 210.9 C-51.65 208.82 -49.36 206.67 -47.07 204.51 C-45.02 202.9 -45.02 202.9 -42.02 202.9 C-41.69 201.91 -41.36 200.92 -41.02 199.9 C-39.04 198.52 -37.04 197.2 -35.02 195.9 C-31.85 193.49 -29.24 191.24 -27.02 187.9 C-26.71 185.48 -26.71 185.48 -26.76 182.76 C-26.75 181.19 -26.75 181.19 -26.74 179.58 C-26.74 178.45 -26.75 177.31 -26.75 176.14 C-26.75 174.97 -26.75 173.8 -26.74 172.6 C-26.74 170.11 -26.75 167.63 -26.75 165.15 C-26.77 161.38 -26.76 157.6 -26.74 153.83 C-26.74 151.41 -26.75 149 -26.75 146.58 C-26.75 145.46 -26.74 144.34 -26.74 143.19 C-26.78 136.53 -27.42 130.37 -29.02 123.9 C-35.57 125.36 -41.75 126.93 -47.79 129.93 C-50.79 131.23 -53.86 132.03 -57.02 132.9 C-69.76 136.78 -82.43 140.86 -94.95 145.4 C-100.14 147.25 -105.34 149.06 -110.58 150.77 C-111.25 151 -111.91 151.23 -112.6 151.46 C-116.43 152.69 -119.16 153.18 -123.02 151.9 C-124.94 149.98 -124.28 146.71 -124.33 144.15 C-124.37 142.92 -124.4 141.68 -124.44 140.41 C-123.81 135.2 -121.23 133 -117.45 129.59 C-115.02 127.9 -115.02 127.9 -112.02 127.9 C-112.02 127.24 -112.02 126.58 -112.02 125.9 C-109.43 124.14 -106.84 122.4 -104.18 120.77 C-101.13 118.62 -99.29 117.05 -98.41 113.34 C-98.21 110.32 -98.19 107.36 -98.27 104.34 C-98.38 91.42 -98.38 91.42 -95.02 87.9 C-92.86 87.09 -92.86 87.09 -90.52 86.9 C-89.74 86.82 -88.97 86.73 -88.17 86.65 C-86.02 86.9 -86.02 86.9 -84.3 88.27 C-81.8 91.44 -81.75 94.06 -81.45 98.02 C-81.37 99.12 -81.29 100.21 -81.2 101.34 C-81.14 102.19 -81.08 103.03 -81.02 103.9 C-77.32 103.3 -75.24 101.7 -72.39 99.34 C-68.23 95.9 -68.23 95.9 -66.02 95.9 C-66.35 94.91 -66.68 93.92 -67.02 92.9 C-67.32 89.13 -67.34 85.36 -67.39 81.59 C-67.45 80.04 -67.45 80.04 -67.5 78.46 C-67.6 69.9 -67.6 69.9 -64.68 66.2 C-62.02 63.9 -62.02 63.9 -58.95 63.4 C-56.16 63.87 -54.35 64.31 -52.02 65.9 C-51.03 67.38 -51.03 67.38 -50.02 68.9 C-49.69 68.9 -49.36 68.9 -49.02 68.9 C-48.52 75.83 -48.52 75.83 -48.02 82.9 C-43.42 80.46 -39.62 77.88 -35.79 74.36 C-34.02 72.9 -34.02 72.9 -31.44 72 C-28.84 70.18 -28.84 70.18 -28.56 67.72 C-28.4 64.74 -28.4 61.79 -28.45 58.8 C-28.44 57.7 -28.44 56.59 -28.43 55.46 C-28.42 51.92 -28.43 48.38 -28.45 44.84 C-28.47 41.32 -28.48 37.81 -28.46 34.29 C-28.45 32.1 -28.46 29.92 -28.49 27.73 C-28.47 20.63 -27.08 15.28 -24.02 8.9 C-23.73 8.22 -23.45 7.54 -23.15 6.84 C-21.52 3.38 -19.84 1.46 -16.39 -0.04 C-11.06 -1.61 -5.07 -2.77 0 0 Z M8.98 180.9 C8.98 182.88 8.98 184.86 8.98 186.9 C9.31 186.9 9.64 186.9 9.98 186.9 C9.98 184.92 9.98 182.94 9.98 180.9 C9.65 180.9 9.32 180.9 8.98 180.9 Z " fill="#244551" transform="translate(646.015625,130.1015625)"/>
<path d="M0 0 C2.63 -0.37 2.63 -0.37 5.99 -0.36 C7.25 -0.36 8.51 -0.36 9.81 -0.37 C11.18 -0.35 12.56 -0.34 13.94 -0.33 C15.35 -0.33 16.76 -0.32 18.16 -0.32 C21.11 -0.32 24.06 -0.3 27.01 -0.28 C30.8 -0.25 34.59 -0.24 38.38 -0.24 C41.28 -0.23 44.19 -0.22 47.1 -0.21 C48.49 -0.21 49.89 -0.2 51.29 -0.2 C53.24 -0.19 55.19 -0.18 57.14 -0.16 C58.25 -0.15 59.36 -0.15 60.5 -0.14 C63 0 63 0 64 1 C64.17 3.42 64.28 5.82 64.35 8.25 C64.39 9.34 64.39 9.34 64.42 10.45 C64.47 11.99 64.51 13.53 64.56 15.06 C64.62 17.42 64.7 19.78 64.78 22.14 C64.83 23.64 64.87 25.13 64.91 26.62 C64.94 27.33 64.96 28.04 64.99 28.77 C65.11 33.77 65.11 33.77 64 36 C63.79 37.75 63.63 39.51 63.5 41.27 C63.42 42.32 63.34 43.38 63.25 44.46 C63.17 45.57 63.09 46.67 63 47.81 C62.84 49.99 62.67 52.16 62.5 54.33 C62.43 55.3 62.36 56.27 62.28 57.26 C62.01 59.9 61.56 62.41 61 65 C59.88 70.86 58.88 76.72 58 82.62 C56.89 89.96 55.51 97 53 104 C48.39 103.57 44.28 102.85 39.88 101.44 C36.09 100.24 33 99.81 29 100 C27.67 99.67 26.33 99.34 25 99 C23.16 98.75 21.31 98.52 19.46 98.32 C18.41 98.19 17.35 98.07 16.26 97.94 C14.04 97.69 11.82 97.44 9.6 97.19 C8.54 97.07 7.49 96.94 6.4 96.82 C5.44 96.71 4.47 96.6 3.48 96.49 C1 96 1 96 -2 94 C-2.3 91.09 -2.4 88.38 -2.37 85.47 C-2.38 84.58 -2.38 83.7 -2.38 82.79 C-2.39 79.86 -2.38 76.93 -2.36 74 C-2.36 71.97 -2.36 69.94 -2.36 67.91 C-2.36 63.65 -2.35 59.39 -2.34 55.13 C-2.31 49.67 -2.31 44.2 -2.32 38.74 C-2.32 34.54 -2.32 30.35 -2.31 26.16 C-2.3 24.14 -2.3 22.12 -2.3 20.11 C-2.3 17.29 -2.29 14.48 -2.27 11.66 C-2.28 10.83 -2.28 9.99 -2.28 9.13 C-2.25 5.23 -2.21 3.31 0 0 Z " fill="#244551" transform="translate(656,667)"/>
<path d="M0 0 C21.78 0 43.56 0 66 0 C66 3.96 65.95 7.92 65.91 11.88 C65.9 12.79 65.89 13.69 65.88 14.63 C65.85 17.63 65.81 20.63 65.78 23.64 C65.76 25.72 65.74 27.8 65.71 29.88 C65.65 35.36 65.6 40.84 65.54 46.32 C65.48 51.91 65.42 57.5 65.36 63.09 C65.24 74.06 65.12 85.03 65 96 C63.82 96.13 62.64 96.27 61.42 96.4 C59.86 96.58 58.31 96.76 56.75 96.94 C55.97 97.02 55.2 97.11 54.39 97.2 C53.64 97.29 52.89 97.38 52.11 97.46 C51.42 97.54 50.73 97.62 50.01 97.7 C47.96 98.01 46.01 98.49 44 99 C41.25 99.26 38.51 99.44 35.75 99.62 C32.86 100.02 30.7 100.89 28 102 C25.25 102.78 22.47 103.45 19.69 104.12 C18.95 104.31 18.21 104.49 17.44 104.68 C15.63 105.12 13.81 105.56 12 106 C8.95 99.87 7.95 93.86 6.94 87.12 C6.62 85.04 6.29 82.96 5.96 80.88 C5.81 79.87 5.65 78.85 5.49 77.81 C5.08 75.45 4.57 73.18 3.98 70.87 C2.25 63.41 2.02 55.62 1.44 48 C1.25 45.57 1.06 43.15 0.87 40.72 C0.75 39.22 0.63 37.72 0.52 36.22 C0.52 32.82 0.52 32.82 -1 30 C-1.1 27.95 -1.13 25.9 -1.13 23.85 C-1.13 22.6 -1.14 21.35 -1.14 20.06 C-1.13 18.74 -1.13 17.42 -1.12 16.06 C-1.13 14.75 -1.13 13.43 -1.14 12.08 C-1.14 10.83 -1.13 9.58 -1.13 8.29 C-1.13 7.13 -1.13 5.97 -1.13 4.78 C-1 2 -1 2 0 0 Z M0 28 C1 30 1 30 1 30 Z " fill="#244551" transform="translate(556,667)"/>
<path d="M0 0 C0.99 0.33 1.98 0.66 3 1 C4.98 5.81 5.98 11.09 6.56 16.25 C6.89 19.96 6.89 19.96 7.94 23.25 C10.44 32.08 11.26 41.02 11.75 50.16 C11.82 52.95 11.82 52.95 13 55 C13.21 56.75 13.37 58.51 13.5 60.27 C13.58 61.32 13.66 62.38 13.75 63.46 C13.83 64.57 13.91 65.67 14 66.81 C14.16 68.99 14.33 71.16 14.5 73.33 C14.61 74.78 14.61 74.78 14.72 76.26 C15 79.4 15 79.4 16 84 C15.67 88.62 15.34 93.24 15 98 C-6.12 98 -27.24 98 -49 98 C-50.27 95.46 -50.16 93.62 -50.21 90.77 C-50.23 89.67 -50.25 88.58 -50.27 87.44 C-50.28 86.25 -50.3 85.05 -50.32 83.81 C-50.34 82.57 -50.36 81.32 -50.38 80.04 C-50.42 77.38 -50.46 74.73 -50.5 72.07 C-50.56 68.1 -50.63 64.13 -50.69 60.16 C-50.8 53.71 -50.89 47.26 -50.96 40.81 C-50.99 38.26 -51.02 35.7 -51.05 33.15 C-51.1 29.52 -51.13 25.88 -51.15 22.25 C-51.17 21.15 -51.18 20.06 -51.2 18.93 C-51.2 17.93 -51.21 16.92 -51.21 15.89 C-51.22 15.01 -51.23 14.14 -51.23 13.24 C-51 11 -51 11 -49 8 C-46.8 7.51 -46.8 7.51 -44.09 7.34 C-43.1 7.27 -42.11 7.2 -41.09 7.12 C-40.05 7.06 -39.01 7 -37.94 6.94 C-30.75 6.48 -23.99 5.71 -17 4 C-15.64 3.72 -14.28 3.45 -12.91 3.18 C-11.64 2.94 -10.37 2.69 -9.06 2.44 C-7.13 2.06 -7.13 2.06 -5.16 1.68 C-2.12 1.16 -2.12 1.16 0 0 Z " fill="#254652" transform="translate(705,540)"/>
<path d="M0 0 C3.95 0.77 7.88 1.63 11.81 2.5 C15.81 3.36 19.75 4.17 23.81 4.62 C27 5 27 5 28 6 C29.69 6.2 31.39 6.35 33.09 6.46 C34.12 6.54 35.15 6.62 36.21 6.7 C38.4 6.86 40.59 7.01 42.79 7.16 C43.82 7.24 44.85 7.32 45.91 7.4 C46.86 7.47 47.81 7.54 48.79 7.61 C49.88 7.8 49.88 7.8 51 8 C52.52 11.04 52.26 14.25 52.35 17.6 C52.39 18.72 52.39 18.72 52.42 19.87 C52.47 21.45 52.51 23.04 52.56 24.62 C52.62 27.06 52.7 29.49 52.78 31.92 C52.83 33.46 52.87 35 52.91 36.54 C52.94 37.27 52.96 38 52.99 38.75 C53.03 40.5 53.02 42.25 53 44 C52.67 44.33 52.34 44.66 52 45 C51.91 46.51 51.88 48.03 51.89 49.55 C51.89 50.52 51.89 51.48 51.89 52.48 C51.89 53.54 51.9 54.59 51.9 55.68 C51.9 56.75 51.91 57.83 51.91 58.94 C51.91 62.4 51.92 65.85 51.94 69.31 C51.94 71.63 51.95 73.96 51.95 76.28 C51.96 81.41 51.98 86.54 51.99 91.67 C52 93.78 52 95.89 52 98 C43.69 98.07 35.38 98.12 27.07 98.16 C23.21 98.17 19.35 98.19 15.49 98.23 C11.77 98.26 8.05 98.28 4.33 98.28 C2.91 98.29 1.49 98.3 0.06 98.32 C-1.92 98.34 -3.91 98.34 -5.9 98.34 C-7.03 98.35 -8.16 98.35 -9.33 98.36 C-10.21 98.24 -11.09 98.12 -12 98 C-14.47 94.3 -14.24 92.34 -14.19 87.94 C-14.18 86.69 -14.17 85.44 -14.17 84.15 C-14 81 -14 81 -13 79 C-12.78 76.68 -12.6 74.35 -12.46 72.02 C-12.36 70.54 -12.25 69.07 -12.15 67.59 C-12.1 66.81 -12.04 66.03 -11.99 65.23 C-10.45 43.69 -8.51 20.06 0 0 Z M-13 81 C-12 84 -12 84 -12 84 Z " fill="#244551" transform="translate(569,540)"/>
<path d="M0 0 C0.88 -0 1.76 -0.01 2.66 -0.01 C3.61 -0.01 4.57 -0.01 5.55 -0 C6.52 -0 7.5 -0.01 8.5 -0.01 C10.56 -0.01 12.62 -0.01 14.68 -0 C17.85 0 21.02 -0 24.18 -0.01 C26.18 -0.01 28.18 -0.01 30.18 -0 C31.13 -0.01 32.08 -0.01 33.07 -0.01 C34.38 -0 34.38 -0 35.73 0 C36.5 0 37.28 0 38.08 0 C39.86 0.13 39.86 0.13 40.86 1.13 C40.96 2.57 40.99 4.02 41 5.47 C41 6.82 41 6.82 41 8.19 C41 9.14 40.99 10.09 40.99 11.07 C40.99 12.44 40.99 12.44 41 13.83 C40.99 21.36 40.74 28.81 38.86 36.13 C38.6 38.81 38.42 41.49 38.24 44.18 C37.8 47.65 36.88 50.78 35.86 54.13 C35.4 55.74 34.95 57.34 34.5 58.95 C32.96 64.35 31.42 69.74 29.86 75.13 C29.66 75.83 29.46 76.52 29.26 77.24 C27.57 83.13 25.86 88.77 22.89 94.15 C21.71 96.43 20.73 98.77 19.73 101.14 C18.13 104.82 16.39 108.44 14.68 112.07 C14.31 112.85 13.94 113.63 13.56 114.43 C12.66 116.33 11.76 118.23 10.86 120.13 C10.2 120.13 9.54 120.13 8.86 120.13 C8.2 121.45 7.54 122.77 6.86 124.13 C0.35 122.5 0.35 122.5 -2.03 120.68 C-5.21 118.34 -8.75 117.47 -12.48 116.29 C-15.48 114.98 -17.13 113.7 -19.14 111.13 C-18.82 104.81 -18.82 104.81 -17.14 103.13 C-16.79 101.44 -16.5 99.73 -16.23 98.03 C-16.07 96.98 -15.9 95.93 -15.72 94.85 C-15.38 92.64 -15.03 90.44 -14.69 88.23 C-14.52 87.17 -14.35 86.12 -14.17 85.03 C-13.95 83.58 -13.95 83.58 -13.72 82.11 C-13.14 79.13 -13.14 79.13 -12.12 75.78 C-11.03 71.75 -10.62 67.97 -10.32 63.82 C-10.26 63.06 -10.2 62.3 -10.13 61.51 C-9.94 59.09 -9.76 56.67 -9.57 54.25 C-9.39 51.81 -9.2 49.38 -9 46.94 C-8.88 45.42 -8.77 43.91 -8.66 42.4 C-8.25 37.24 -8.25 37.24 -7.14 36.13 C-6.99 34.39 -6.91 32.65 -6.86 30.91 C-6.8 29.3 -6.8 29.3 -6.74 27.64 C-6.71 26.5 -6.67 25.37 -6.64 24.19 C-5.87 0.01 -5.87 0.01 0 0 Z M-7.14 37.13 C-6.14 39.13 -6.14 39.13 -6.14 39.13 Z " fill="#244551" transform="translate(748.13671875,666.87060546875)"/>
<path d="M0 0 C1.1 0 1.1 0 2.23 0 C3.06 0 3.9 -0 4.76 -0.01 C5.66 0 6.56 0.01 7.49 0.02 C8.88 0.02 8.88 0.02 10.29 0.02 C12.25 0.02 14.21 0.03 16.16 0.04 C19.17 0.06 22.17 0.06 25.17 0.06 C27.07 0.07 28.97 0.07 30.87 0.08 C31.77 0.08 32.67 0.08 33.6 0.08 C34.43 0.09 35.27 0.1 36.13 0.1 C36.86 0.11 37.6 0.11 38.36 0.11 C40.18 0.25 40.18 0.25 42.18 1.25 C42.56 3.38 42.56 3.38 42.74 6.37 C42.81 7.53 42.89 8.68 42.96 9.87 C43.14 13.29 43.28 16.7 43.42 20.12 C43.47 21.15 43.51 22.18 43.55 23.24 C43.64 25.31 43.71 27.39 43.79 29.46 C43.84 30.91 43.84 30.91 43.9 32.38 C43.93 33.25 43.96 34.11 43.99 35 C44.1 37.42 44.1 37.42 45.18 40.25 C45.22 41.87 45.22 43.5 45.18 45.12 C45.14 48.67 45.39 51.78 46.18 55.25 C46.18 56.91 46.18 58.58 46.18 60.25 C46.51 60.58 46.84 60.91 47.18 61.25 C47.56 64.02 47.89 66.78 48.18 69.56 C48.34 71.1 48.51 72.64 48.68 74.17 C48.75 74.86 48.82 75.54 48.9 76.25 C49.19 78.3 49.65 80.24 50.18 82.25 C50.48 83.75 50.77 85.25 51.05 86.75 C52.36 93.37 54.02 99.9 55.76 106.42 C56.49 109.6 56.38 111.16 55.18 114.25 C52.05 116.37 48.63 117.74 45.18 119.25 C42.64 120.63 40.12 122.02 37.6 123.43 C34.16 124.59 32.59 124.59 29.18 123.25 C27.03 120.52 25.6 117.5 24.12 114.37 C23.68 113.5 23.25 112.62 22.8 111.72 C21.57 109.24 20.37 106.75 19.18 104.25 C18.43 102.76 18.43 102.76 17.67 101.24 C9.49 84.38 3.9 65.5 1.13 47.02 C0.87 43.33 0.87 43.33 -0.82 40.25 C-1.64 34.52 -1.9 29 -1.76 23.22 C-1.6 21.24 -1.6 21.24 -2.82 20.25 C-3.06 18.36 -3.24 16.46 -3.38 14.56 C-3.47 13.52 -3.55 12.49 -3.64 11.42 C-3.99 5.3 -3.99 5.3 -3.82 2.25 C-1.82 0.25 -1.82 0.25 0 0 Z " fill="#244551" transform="translate(490.821533203125,666.7527618408203)"/>
<path d="M0 0 C5.03 1.18 9.59 3.63 14.19 5.94 C14.9 6.28 15.61 6.63 16.34 6.99 C17.03 7.33 17.71 7.67 18.42 8.03 C19.03 8.33 19.65 8.64 20.29 8.96 C22.19 10.12 23.57 11.28 25 13 C24.93 15.52 24.93 15.52 24.31 18.38 C24.03 19.78 24.03 19.78 23.74 21.21 C23 24 23 24 21.98 26.5 C20.92 29.21 20.41 31.75 19.94 34.62 C19.45 37.56 18.94 40.17 18 43 C17.7 45.34 17.49 47.69 17.28 50.04 C17 52 17 52 16 53 C15.63 55.48 15.29 57.95 15 60.44 C14.13 67.73 14.13 67.73 13 70 C12.95 71.85 12.96 73.71 13 75.56 C13.04 77.37 13.05 79.19 13 81 C12.67 81.33 12.34 81.66 12 82 C11.95 84.51 11.95 86.99 12 89.5 C12.05 92.01 12.05 94.49 12 97 C11.67 97.33 11.34 97.66 11 98 C10.67 103.94 10.34 109.88 10 116 C-5.18 116 -20.36 116 -36 116 C-36 98.6 -36 98.6 -35.12 91.94 C-35.05 91.24 -34.97 90.55 -34.89 89.84 C-34.37 85.67 -33.38 81.96 -32 78 C-31.54 75.9 -31.1 73.8 -30.69 71.69 C-28.13 59.57 -24.84 48.06 -19.39 36.89 C-18.18 34.37 -17.16 31.87 -16.19 29.25 C-13.99 23.58 -11.07 18.31 -8.17 12.98 C-6.58 10.04 -5.09 7.24 -3.91 4.11 C-3 2 -3 2 0 0 Z " fill="#244551" transform="translate(524,522)"/>
<path d="M0 0 C2.29 0.19 2.29 0.19 5 1 C6.8 3.21 6.8 3.21 8.31 5.94 C8.82 6.83 9.34 7.73 9.86 8.65 C11 11 11 11 11 13 C11.99 13.33 12.98 13.66 14 14 C15.28 16.64 16.39 19.2 17.44 21.94 C17.9 23.1 17.9 23.1 18.37 24.29 C18.98 25.84 19.59 27.38 20.19 28.93 C21.15 31.39 22.17 33.82 23.19 36.25 C26.95 45.73 29.49 55.64 32.07 65.49 C33 69.01 33.99 72.5 35 76 C36.59 81.6 37.36 86.87 37.75 92.68 C37.87 95.02 37.87 95.02 39 97 C39.23 98.35 39.41 99.7 39.56 101.06 C39.65 101.78 39.73 102.49 39.82 103.22 C39.98 105.72 40.02 108.17 40.01 110.67 C40.01 111.48 40.01 112.29 40.01 113.13 C40 113.75 40 114.36 40 115 C33.77 115.03 27.54 115.04 21.31 115.05 C19.19 115.06 17.07 115.07 14.95 115.08 C11.91 115.09 8.86 115.09 5.82 115.1 C4.87 115.1 3.92 115.11 2.94 115.11 C2.05 115.11 1.17 115.11 0.27 115.11 C-0.51 115.12 -1.29 115.12 -2.09 115.12 C-4 115 -4 115 -6 114 C-7.19 107.99 -7.33 101.89 -7.61 95.79 C-7.46 92.09 -7.46 92.09 -9 89 C-9.29 86.72 -9.52 84.44 -9.72 82.15 C-9.78 81.46 -9.84 80.76 -9.91 80.05 C-10.11 77.83 -10.31 75.6 -10.5 73.38 C-10.7 71.17 -10.89 68.97 -11.09 66.76 C-11.27 64.75 -11.45 62.73 -11.63 60.72 C-12.11 55.91 -12.63 51.27 -13.97 46.62 C-15.36 41.73 -16.05 36.79 -16.77 31.76 C-17.48 27.15 -18.64 23.17 -20.39 18.86 C-21.26 16.21 -21.21 13.76 -21 11 C-16.33 8.67 -11.67 6.33 -7 4 C-6.25 3.6 -5.5 3.19 -4.73 2.77 C-3 2 -3 2 0 2 C0 1.34 0 0.68 0 0 Z M-8 87 C-7 89 -7 89 -7 89 Z " fill="#244551" transform="translate(749,523)"/>
<path d="M0 0 C3.12 2.36 4.13 3.58 5.06 7.31 C5.72 7.31 6.38 7.31 7.06 7.31 C10.34 12.86 10.42 17.07 9.09 23.36 C7.31 28.47 4.69 31.54 0.06 34.31 C-5.48 36.4 -10.34 37.07 -16.08 35.39 C-20.8 33.14 -24.24 30.75 -26.69 26.06 C-28.91 19.58 -27.97 13.29 -25.5 7 C-20.6 -1.75 -8.63 -4.35 0 0 Z " fill="#244551" transform="translate(646.9375,1079.6875)"/>
<path d="M0 0 C1.11 -0.02 2.22 -0.03 3.37 -0.05 C7.66 0.44 10.26 1.8 13.07 5.07 C16.34 10.42 18.75 15.44 18.44 21.88 C16.21 28.08 13.7 32.17 7.9 35.43 C2.74 37.38 -2.55 37.22 -7.78 35.58 C-12.04 33.64 -15.1 31.45 -17.44 27.31 C-19.48 21.84 -19.91 17.53 -17.88 12 C-14.03 3.75 -9.02 0.03 0 0 Z " fill="#244551" transform="translate(222.4375,641.6875)"/>
<path d="M0 0 C2.02 1.82 3.37 3.79 5 6 C5 6.66 5 7.32 5 8 C5.66 8 6.32 8 7 8 C7.08 10.56 7.14 13.12 7.19 15.69 C7.21 16.41 7.24 17.13 7.26 17.87 C7.33 22.49 6.85 25.34 4 29 C-0.14 33.17 -3.38 35.15 -9.25 35.25 C-15.8 35.16 -19.67 33.58 -24.31 28.94 C-28.36 23.9 -28.14 18.8 -27.91 12.61 C-27.32 7.88 -25.7 5.15 -22.19 1.94 C-15.94 -2.46 -7.14 -2.61 0 0 Z " fill="#244551" transform="translate(1064,643)"/>
<path d="M0 0 C4.31 0.47 6.77 3.26 9.75 6.12 C10.82 7.14 11.9 8.15 12.97 9.16 C13.49 9.65 14.01 10.14 14.54 10.64 C16.39 12.37 18.32 14 20.25 15.62 C24.49 19.33 28.93 23.26 32 28 C31.88 30.19 31.88 30.19 31 32 C28.44 33.25 28.44 33.25 26 34 C26 34.66 26 35.32 26 36 C22.7 36.99 19.4 37.98 16 39 C12.73 34.5 10.84 30.27 9.12 25 C6.78 18.05 4.1 11.36 1.1 4.66 C0 2 0 2 0 0 Z " fill="#244551" transform="translate(706,472)"/>
<path d="M0 0 C2.19 0.36 2.19 0.36 4 1 C3.57 1.66 3.13 2.32 2.69 3 C1.05 5.91 -0.07 8.7 -1.16 11.84 C-2 14 -2 14 -3.46 16.84 C-5.03 20.07 -6.07 23.18 -7.06 26.62 C-8.15 30.37 -9.24 33.49 -11 37 C-13.97 36.67 -16.94 36.34 -20 36 C-20.5 34.51 -20.5 34.51 -21 33 C-22.98 32.28 -24.98 31.62 -27 31 C-27.66 30.34 -28.32 29.68 -29 29 C-27.65 25.89 -26.25 24.12 -23.62 22 C-19.86 18.82 -16.39 15.44 -12.94 11.94 C-3.89 2.83 -3.89 2.83 0 0 Z " fill="#244551" transform="translate(567,472)"/>
<path d="M0 0 C0.33 0 0.66 0 1 0 C1 31.02 1 62.04 1 94 C0.67 94 0.34 94 0 94 C0 62.98 0 31.96 0 0 Z " fill="#000102" transform="translate(622,670)"/>
<path d="M0 0 C0.33 0 0.66 0 1 0 C1 16.17 1 32.34 1 49 C0.67 49 0.34 49 0 49 C0 32.83 0 16.66 0 0 Z " fill="#000102" transform="translate(621,585)"/>
<path d="M0 0 C0.33 0 0.66 0 1 0 C1 9.24 1 18.48 1 28 C0.67 28 0.34 28 0 28 C0 18.76 0 9.52 0 0 Z " fill="#000102" transform="translate(721,668)"/>
<path d="M0 0 C0.33 0 0.66 0 1 0 C1 8.25 1 16.5 1 25 C0.67 25 0.34 25 0 25 C0 16.75 0 8.5 0 0 Z " fill="#000102" transform="translate(657,282)"/>
<path d="M0 0 C0.33 0 0.66 0 1 0 C1 8.25 1 16.5 1 25 C0.67 25 0.34 25 0 25 C0 16.75 0 8.5 0 0 Z " fill="#000102" transform="translate(696,199)"/>
<path d="M0 0 C0.33 0 0.66 0 1 0 C1 7.59 1 15.18 1 23 C0.67 23 0.34 23 0 23 C0 15.41 0 7.82 0 0 Z " fill="#000102" transform="translate(622,550)"/>
<path d="M0 0 C0.33 0 0.66 0 1 0 C1 7.59 1 15.18 1 23 C0.67 23 0.34 23 0 23 C0 15.41 0 7.82 0 0 Z " fill="#000102" transform="translate(622,502)"/>
<path d="M0 0 C0.33 0 0.66 0 1 0 C1 4.62 1 9.24 1 14 C0.67 14 0.34 14 0 14 C0 9.38 0 4.76 0 0 Z " fill="#000102" transform="translate(721,624)"/>
<path d="M0 0 C0.33 0 0.66 0 1 0 C1 4.29 1 8.58 1 13 C0.67 13 0.34 13 0 13 C0 8.71 0 4.42 0 0 Z " fill="#000102" transform="translate(617,810)"/>
<path d="M0 0 C0.33 0 0.66 0 1 0 C1 4.29 1 8.58 1 13 C0.67 13 0.34 13 0 13 C0 8.71 0 4.42 0 0 Z " fill="#000102" transform="translate(537,316)"/>
<path d="M0 0 C0.33 0 0.66 0 1 0 C1 3.96 1 7.92 1 12 C0.67 12 0.34 12 0 12 C0 8.04 0 4.08 0 0 Z " fill="#000102" transform="translate(616,797)"/>
<path d="M0 0 C0.33 0 0.66 0 1 0 C1 3.96 1 7.92 1 12 C0.67 12 0.34 12 0 12 C0 8.04 0 4.08 0 0 Z " fill="#000102" transform="translate(626,446)"/>
<path d="M0 0 C0.33 0 0.66 0 1 0 C1 3.63 1 7.26 1 11 C0.67 11 0.34 11 0 11 C0 7.37 0 3.74 0 0 Z " fill="#000102" transform="translate(1072,655)"/>
<path d="M0 0 C0.33 0 0.66 0 1 0 C1 3.63 1 7.26 1 11 C0.67 11 0.34 11 0 11 C0 7.37 0 3.74 0 0 Z " fill="#000102" transform="translate(756,269)"/>
<path d="M0 0 C0.33 0 0.66 0 1 0 C1 3.3 1 6.6 1 10 C0.67 10 0.34 10 0 10 C0 6.7 0 3.4 0 0 Z " fill="#000102" transform="translate(621,860)"/>
<path d="M0 0 C0.33 0 0.66 0 1 0 C1 3.3 1 6.6 1 10 C0.67 10 0.34 10 0 10 C0 6.7 0 3.4 0 0 Z " fill="#000102" transform="translate(536,707)"/>
<path d="M0 0 C3.3 0 6.6 0 10 0 C10 0.33 10 0.66 10 1 C6.7 1 3.4 1 0 1 C0 0.67 0 0.34 0 0 Z " fill="#000102" transform="translate(884,641)"/>
<path d="M0 0 C0.33 0 0.66 0 1 0 C1 3.3 1 6.6 1 10 C0.67 10 0.34 10 0 10 C0 6.7 0 3.4 0 0 Z " fill="#000102" transform="translate(536,604)"/>
<path d="M0 0 C2.97 0 5.94 0 9 0 C9 0.33 9 0.66 9 1 C6.03 1 3.06 1 0 1 C0 0.67 0 0.34 0 0 Z " fill="#000102" transform="translate(589,1057)"/>
<path d="M0 0 C0.33 0 0.66 0 1 0 C1 2.97 1 5.94 1 9 C0.67 9 0.34 9 0 9 C0 6.03 0 3.06 0 0 Z " fill="#000102" transform="translate(467,682)"/>
<path d="M0 0 C0.33 0 0.66 0 1 0 C1 2.64 1 5.28 1 8 C0.67 8 0.34 8 0 8 C0 5.36 0 2.72 0 0 Z " fill="#000102" transform="translate(632,967)"/>
<path d="M0 0 C0.33 0 0.66 0 1 0 C1 2.64 1 5.28 1 8 C0.67 8 0.34 8 0 8 C0 5.36 0 2.72 0 0 Z " fill="#000102" transform="translate(631,958)"/>
<path d="M0 0 C0.33 0 0.66 0 1 0 C1 2.64 1 5.28 1 8 C0.67 8 0.34 8 0 8 C0 5.36 0 2.72 0 0 Z " fill="#000102" transform="translate(626,914)"/>
<path d="M0 0 C0.33 0 0.66 0 1 0 C1 2.64 1 5.28 1 8 C0.67 8 0.34 8 0 8 C0 5.36 0 2.72 0 0 Z " fill="#000102" transform="translate(622,874)"/>
<path d="M0 0 C0.33 0 0.66 0 1 0 C1 2.64 1 5.28 1 8 C0.67 8 0.34 8 0 8 C0 5.36 0 2.72 0 0 Z " fill="#000102" transform="translate(466,668)"/>
<path d="M0 0 C2.64 0 5.28 0 8 0 C8 0.33 8 0.66 8 1 C5.36 1 2.72 1 0 1 C0 0.67 0 0.34 0 0 Z " fill="#000102" transform="translate(375,642)"/>
<path d="M0 0 C2.64 0 5.28 0 8 0 C8 0.33 8 0.66 8 1 C5.36 1 2.72 1 0 1 C0 0.67 0 0.34 0 0 Z " fill="#000102" transform="translate(388,641)"/>
<path d="M0 0 C2.64 0 5.28 0 8 0 C8 0.33 8 0.66 8 1 C5.36 1 2.72 1 0 1 C0 0.67 0 0.34 0 0 Z " fill="#000102" transform="translate(458,637)"/>
<path d="M0 0 C0.33 0 0.66 0 1 0 C1 2.64 1 5.28 1 8 C0.67 8 0.34 8 0 8 C0 5.36 0 2.72 0 0 Z " fill="#000102" transform="translate(467,620)"/>
<path d="M0 0 C0.33 0 0.66 0 1 0 C1 2.64 1 5.28 1 8 C0.67 8 0.34 8 0 8 C0 5.36 0 2.72 0 0 Z " fill="#000102" transform="translate(717,585)"/>
<path d="M0 0 C0.33 0 0.66 0 1 0 C1 2.64 1 5.28 1 8 C0.67 8 0.34 8 0 8 C0 5.36 0 2.72 0 0 Z " fill="#000102" transform="translate(627,433)"/>
<path d="M0 0 C0.33 0 0.66 0 1 0 C1 2.31 1 4.62 1 7 C0.67 7 0.34 7 0 7 C0 4.69 0 2.38 0 0 Z " fill="#000102" transform="translate(636,999)"/>
<path d="M0 0 C1.98 0 3.96 0 6 0 C6 0.33 6 0.66 6 1 C4.02 1 2.04 1 0 1 C0 0.67 0 0.34 0 0 Z " fill="#000102" transform="translate(636,1116)"/>
<path d="M0 0 C0.33 0 0.66 0 1 0 C1 1.98 1 3.96 1 6 C0.67 6 0.34 6 0 6 C0 4.02 0 2.04 0 0 Z " fill="#000102" transform="translate(547,775)"/>
<path d="M0 0 C0.33 0 0.66 0 1 0 C1 1.98 1 3.96 1 6 C0.67 6 0.34 6 0 6 C0 4.02 0 2.04 0 0 Z " fill="#000102" transform="translate(716,736)"/>
<path d="M0 0 C0.33 0 0.66 0 1 0 C1 1.98 1 3.96 1 6 C0.67 6 0.34 6 0 6 C0 4.02 0 2.04 0 0 Z " fill="#000102" transform="translate(787,612)"/>
<path d="M0 0 C0.33 0 0.66 0 1 0 C1 1.98 1 3.96 1 6 C0.67 6 0.34 6 0 6 C0 4.02 0 2.04 0 0 Z " fill="#000102" transform="translate(1017,592)"/>
<path d="M0 0 C0.33 0 0.66 0 1 0 C1 1.98 1 3.96 1 6 C0.67 6 0.34 6 0 6 C0 4.02 0 2.04 0 0 Z " fill="#000102" transform="translate(537,592)"/>
<path d="M0 0 C1.98 0 3.96 0 6 0 C6 0.33 6 0.66 6 1 C4.02 1 2.04 1 0 1 C0 0.67 0 0.34 0 0 Z " fill="#000102" transform="translate(615,526)"/>
<path d="M0 0 C0.33 0 0.66 0 1 0 C1 1.98 1 3.96 1 6 C0.67 6 0.34 6 0 6 C0 4.02 0 2.04 0 0 Z " fill="#000102" transform="translate(631,398)"/>
<path d="M0 0 C0.33 0 0.66 0 1 0 C1 1.98 1 3.96 1 6 C0.67 6 0.34 6 0 6 C0 4.02 0 2.04 0 0 Z " fill="#000102" transform="translate(632,387)"/>
<path d="M0 0 C1.65 0 3.3 0 5 0 C5 0.33 5 0.66 5 1 C3.35 1 1.7 1 0 1 C0 0.67 0 0.34 0 0 Z " fill="#000102" transform="translate(636,1051)"/>
<path d="M0 0 C0.33 0 0.66 0 1 0 C1 1.65 1 3.3 1 5 C0.67 5 0.34 5 0 5 C0 3.35 0 1.7 0 0 Z " fill="#000102" transform="translate(597,1026)"/>
<path d="M0 0 C0.33 0 0.66 0 1 0 C1 1.65 1 3.3 1 5 C0.67 5 0.34 5 0 5 C0 3.35 0 1.7 0 0 Z " fill="#000102" transform="translate(596,1020)"/>
<path d="M0 0 C0.33 0 0.66 0 1 0 C1 1.65 1 3.3 1 5 C0.67 5 0.34 5 0 5 C0 3.35 0 1.7 0 0 Z " fill="#000102" transform="translate(627,927)"/>
<path d="M0 0 C0.33 0 0.66 0 1 0 C1 1.65 1 3.3 1 5 C0.67 5 0.34 5 0 5 C0 3.35 0 1.7 0 0 Z " fill="#000102" transform="translate(701,802)"/>
<path d="M0 0 C0.33 0 0.66 0 1 0 C1 1.65 1 3.3 1 5 C0.67 5 0.34 5 0 5 C0 3.35 0 1.7 0 0 Z " fill="#000102" transform="translate(712,758)"/>
<path d="M0 0 C0.33 0 0.66 0 1 0 C1 1.65 1 3.3 1 5 C0.67 5 0.34 5 0 5 C0 3.35 0 1.7 0 0 Z " fill="#000102" transform="translate(537,722)"/>
<path d="M0 0 C0.33 0 0.66 0 1 0 C1 1.65 1 3.3 1 5 C0.67 5 0.34 5 0 5 C0 3.35 0 1.7 0 0 Z " fill="#000102" transform="translate(906,720)"/>
<path d="M0 0 C1.65 0 3.3 0 5 0 C5 0.33 5 0.66 5 1 C3.35 1 1.7 1 0 1 C0 0.67 0 0.34 0 0 Z " fill="#000102" transform="translate(957,652)"/>
<path d="M0 0 C1.65 0 3.3 0 5 0 C5 0.33 5 0.66 5 1 C3.35 1 1.7 1 0 1 C0 0.67 0 0.34 0 0 Z " fill="#000102" transform="translate(951,651)"/>
<path d="M0 0 C1.65 0 3.3 0 5 0 C5 0.33 5 0.66 5 1 C3.35 1 1.7 1 0 1 C0 0.67 0 0.34 0 0 Z " fill="#000102" transform="translate(898,642)"/>
<path d="M0 0 C0.33 0 0.66 0 1 0 C1 1.65 1 3.3 1 5 C0.67 5 0.34 5 0 5 C0 3.35 0 1.7 0 0 Z " fill="#000102" transform="translate(716,579)"/>
<path d="M0 0 C1.65 0 3.3 0 5 0 C5 0.33 5 0.66 5 1 C3.35 1 1.7 1 0 1 C0 0.67 0 0.34 0 0 Z " fill="#000102" transform="translate(686,521)"/>
<path d="M0 0 C1.65 0 3.3 0 5 0 C5 0.33 5 0.66 5 1 C3.35 1 1.7 1 0 1 C0 0.67 0 0.34 0 0 Z " fill="#000102" transform="translate(585,366)"/>
<path d="M0 0 C1 4 1 4 1 4 Z " fill="#000102" transform="translate(657,1097)"/>
<path d="M0 0 C4 1 4 1 4 1 Z " fill="#000102" transform="translate(682,1057)"/>
<path d="M0 0 C4 1 4 1 4 1 Z " fill="#000102" transform="translate(596,766)"/>
<path d="M0 0 C1 4 1 4 1 4 Z " fill="#000102" transform="translate(312,742)"/>
<path d="M0 0 C1 4 1 4 1 4 Z " fill="#000102" transform="translate(1017,728)"/>
<path d="M0 0 C1 4 1 4 1 4 Z " fill="#000102" transform="translate(717,728)"/>
<path d="M0 0 C4 1 4 1 4 1 Z " fill="#000102" transform="translate(925,646)"/>
<path d="M0 0 C4 1 4 1 4 1 Z " fill="#000102" transform="translate(350,646)"/>
<path d="M0 0 C1 4 1 4 1 4 Z " fill="#000102" transform="translate(466,633)"/>
<path d="M0 0 C1 4 1 4 1 4 Z " fill="#000102" transform="translate(786,607)"/>
<path d="M0 0 C1 4 1 4 1 4 Z " fill="#000102" transform="translate(907,605)"/>
<path d="M0 0 C1 4 1 4 1 4 Z " fill="#000102" transform="translate(1016,587)"/>
<path d="M0 0 C1 4 1 4 1 4 Z " fill="#000102" transform="translate(781,585)"/>
<path d="M0 0 C1 4 1 4 1 4 Z " fill="#000102" transform="translate(316,566)"/>
<path d="M0 0 C1 4 1 4 1 4 Z " fill="#000102" transform="translate(701,515)"/>
<path d="" fill="#000102" transform="translate(0,0)"/>
<path d="M0 0 C3 1 3 1 3 1 Z " fill="#000102" transform="translate(690,1056)"/>
<path d="M0 0 C3 1 3 1 3 1 Z " fill="#000102" transform="translate(582,1056)"/>
<path d="M0 0 C3 1 3 1 3 1 Z " fill="#000102" transform="translate(561,1051)"/>
<path d="M0 0 C3 1 3 1 3 1 Z " fill="#000102" transform="translate(747,1041)"/>
<path d="" fill="#000102" transform="translate(0,0)"/>
<path d="" fill="#000102" transform="translate(0,0)"/>
<path d="" fill="#000102" transform="translate(0,0)"/>
<path d="" fill="#000102" transform="translate(0,0)"/>
<path d="M0 0 C3 1 3 1 3 1 Z " fill="#000102" transform="translate(690,937)"/>
<path d="M0 0 C3 1 3 1 3 1 Z " fill="#000102" transform="translate(694,936)"/>
<path d="M0 0 C3 1 3 1 3 1 Z " fill="#000102" transform="translate(567,932)"/>
<path d="M0 0 C3 1 3 1 3 1 Z " fill="#000102" transform="translate(727,926)"/>
<path d="M0 0 C3 1 3 1 3 1 Z " fill="#000102" transform="translate(536,921)"/>
<path d="" fill="#000102" transform="translate(0,0)"/>
<path d="M0 0 C3 1 3 1 3 1 Z " fill="#000102" transform="translate(522,792)"/>
<path d="" fill="#000102" transform="translate(0,0)"/>
<path d="M0 0 C3 1 3 1 3 1 Z " fill="#000102" transform="translate(706,772)"/>
<path d="M0 0 C3 1 3 1 3 1 Z " fill="#000102" transform="translate(688,767)"/>
<path d="M0 0 C3 1 3 1 3 1 Z " fill="#000102" transform="translate(589,767)"/>
<path d="M0 0 C3 1 3 1 3 1 Z " fill="#000102" transform="translate(681,766)"/>
<path d="" fill="#000102" transform="translate(0,0)"/>
<path d="" fill="#000102" transform="translate(0,0)"/>
<path d="" fill="#000102" transform="translate(0,0)"/>
<path d="" fill="#000102" transform="translate(0,0)"/>
<path d="" fill="#000102" transform="translate(0,0)"/>
<path d="" fill="#000102" transform="translate(0,0)"/>
<path d="" fill="#000102" transform="translate(0,0)"/>
<path d="" fill="#000102" transform="translate(0,0)"/>
<path d="" fill="#000102" transform="translate(0,0)"/>
<path d="" fill="#254652" transform="translate(0,0)"/>
<path d="M0 0 C3 1 3 1 3 1 Z " fill="#000102" transform="translate(307,677)"/>
<path d="" fill="#254652" transform="translate(0,0)"/>
<path d="M0 0 C3 1 3 1 3 1 Z " fill="#000102" transform="translate(314,652)"/>
<path d="M0 0 C3 1 3 1 3 1 Z " fill="#000102" transform="translate(321,651)"/>
<path d="M0 0 C3 1 3 1 3 1 Z " fill="#000102" transform="translate(933,647)"/>
<path d="M0 0 C3 1 3 1 3 1 Z " fill="#000102" transform="translate(343,647)"/>
<path d="" fill="#254652" transform="translate(0,0)"/>
<path d="" fill="#000102" transform="translate(0,0)"/>
<path d="" fill="#000102" transform="translate(0,0)"/>
<path d="" fill="#000102" transform="translate(0,0)"/>
<path d="" fill="#000102" transform="translate(0,0)"/>
<path d="" fill="#000102" transform="translate(0,0)"/>
<path d="" fill="#000102" transform="translate(0,0)"/>
<path d="M0 0 C3 1 3 1 3 1 Z " fill="#000102" transform="translate(682,522)"/>
<path d="M0 0 C3 1 3 1 3 1 Z " fill="#000102" transform="translate(592,522)"/>
<path d="M0 0 C3 1 3 1 3 1 Z " fill="#000102" transform="translate(584,521)"/>
<path d="M0 0 C3 1 3 1 3 1 Z " fill="#000102" transform="translate(670,421)"/>
<path d="M0 0 C3 1 3 1 3 1 Z " fill="#000102" transform="translate(689,366)"/>
<path d="" fill="#000102" transform="translate(0,0)"/>
<path d="" fill="#000102" transform="translate(0,0)"/>
<path d="M0 0 C3 1 3 1 3 1 Z " fill="#000102" transform="translate(530,282)"/>
<path d="M0 0 C3 1 3 1 3 1 Z " fill="#000102" transform="translate(560,272)"/>
<path d="M0 0 C3 1 3 1 3 1 Z " fill="#000102" transform="translate(575,267)"/>
<path d="" fill="#000102" transform="translate(0,0)"/>
<path d="" fill="#000102" transform="translate(0,0)"/>
<path d="M0 0 C2 1 2 1 2 1 Z " fill="#000102" transform="translate(732,1046)"/>
<path d="M0 0 C2 1 2 1 2 1 Z " fill="#000102" transform="translate(543,1046)"/>
<path d="M0 0 C2 1 2 1 2 1 Z " fill="#000102" transform="translate(744,1042)"/>
<path d="M0 0 C2 1 2 1 2 1 Z " fill="#000102" transform="translate(516,1037)"/>
<path d="M0 0 C2 1 2 1 2 1 Z " fill="#000102" transform="translate(772,1032)"/>
<path d="M0 0 C2 1 2 1 2 1 Z " fill="#000102" transform="translate(501,1031)"/>
<path d="" fill="#000102" transform="translate(0,0)"/>
<path d="M0 0 C2 1 2 1 2 1 Z " fill="#000102" transform="translate(817,1011)"/>
<path d="M0 0 C2 1 2 1 2 1 Z " fill="#000102" transform="translate(451,1006)"/>
<path d="" fill="#000102" transform="translate(0,0)"/>
<path d="" fill="#000102" transform="translate(0,0)"/>
<path d="" fill="#000102" transform="translate(0,0)"/>
<path d="M0 0 C2 1 2 1 2 1 Z " fill="#000102" transform="translate(882,966)"/>
<path d="" fill="#000102" transform="translate(0,0)"/>
<path d="" fill="#000102" transform="translate(0,0)"/>
<path d="M0 0 C2 1 2 1 2 1 Z " fill="#000102" transform="translate(587,937)"/>
<path d="M0 0 C2 1 2 1 2 1 Z " fill="#000102" transform="translate(580,936)"/>
<path d="M0 0 C2 1 2 1 2 1 Z " fill="#000102" transform="translate(564,931)"/>
<path d="M0 0 C2 1 2 1 2 1 Z " fill="#000102" transform="translate(549,926)"/>
<path d="M0 0 C2 1 2 1 2 1 Z " fill="#000102" transform="translate(738,922)"/>
<path d="M0 0 C2 1 2 1 2 1 Z " fill="#254652" transform="translate(580,846)"/>
<path d="" fill="#000102" transform="translate(0,0)"/>
<path d="" fill="#000102" transform="translate(0,0)"/>
<path d="" fill="#000102" transform="translate(0,0)"/>
<path d="" fill="#000102" transform="translate(0,0)"/>
<path d="" fill="#000102" transform="translate(0,0)"/>
<path d="" fill="#000102" transform="translate(0,0)"/>
<path d="" fill="#000102" transform="translate(0,0)"/>
<path d="" fill="#000102" transform="translate(0,0)"/>
<path d="M0 0 C2 1 2 1 2 1 Z " fill="#000102" transform="translate(751,791)"/>
<path d="" fill="#000102" transform="translate(0,0)"/>
<path d="M0 0 C2 1 2 1 2 1 Z " fill="#000102" transform="translate(533,787)"/>
<path d="" fill="#000102" transform="translate(0,0)"/>
<path d="" fill="#000102" transform="translate(0,0)"/>
<path d="M0 0 C2 1 2 1 2 1 Z " fill="#000102" transform="translate(703,771)"/>
<path d="" fill="#000102" transform="translate(0,0)"/>
<path d="" fill="#000102" transform="translate(0,0)"/>
<path d="" fill="#000102" transform="translate(0,0)"/>
<path d="" fill="#000102" transform="translate(0,0)"/>
<path d="" fill="#000102" transform="translate(0,0)"/>
<path d="" fill="#000102" transform="translate(0,0)"/>
<path d="" fill="#000102" transform="translate(0,0)"/>
<path d="" fill="#000102" transform="translate(0,0)"/>
<path d="" fill="#000102" transform="translate(0,0)"/>
<path d="" fill="#000102" transform="translate(0,0)"/>
<path d="" fill="#000102" transform="translate(0,0)"/>
<path d="" fill="#000102" transform="translate(0,0)"/>
<path d="" fill="#000102" transform="translate(0,0)"/>
<path d="" fill="#000102" transform="translate(0,0)"/>
<path d="M0 0 C2 1 2 1 2 1 Z " fill="#000102" transform="translate(356,692)"/>
<path d="M0 0 C2 1 2 1 2 1 Z " fill="#000102" transform="translate(923,691)"/>
<path d="M0 0 C2 1 2 1 2 1 Z " fill="#000102" transform="translate(935,687)"/>
<path d="M0 0 C2 1 2 1 2 1 Z " fill="#000102" transform="translate(335,686)"/>
<path d="M0 0 C2 1 2 1 2 1 Z " fill="#000102" transform="translate(321,682)"/>
<path d="M0 0 C2 1 2 1 2 1 Z " fill="#000102" transform="translate(955,681)"/>
<path d="M0 0 C2 1 2 1 2 1 Z " fill="#000102" transform="translate(969,676)"/>
<path d="" fill="#254652" transform="translate(0,0)"/>
<path d="M0 0 C2 1 2 1 2 1 Z " fill="#000102" transform="translate(304,676)"/>
<path d="M0 0 C2 1 2 1 2 1 Z " fill="#000102" transform="translate(232,676)"/>
<path d="M0 0 C2 1 2 1 2 1 Z " fill="#000102" transform="translate(979,672)"/>
<path d="" fill="#000102" transform="translate(0,0)"/>
<path d="" fill="#000102" transform="translate(0,0)"/>
<path d="M0 0 C2 1 2 1 2 1 Z " fill="#000102" transform="translate(993,667)"/>
<path d="" fill="#000102" transform="translate(0,0)"/>
<path d="" fill="#000102" transform="translate(0,0)"/>
<path d="M0 0 C2 1 2 1 2 1 Z " fill="#000102" transform="translate(1001,617)"/>
<path d="M0 0 C2 1 2 1 2 1 Z " fill="#000102" transform="translate(998,616)"/>
<path d="" fill="#254652" transform="translate(0,0)"/>
<path d="M0 0 C2 1 2 1 2 1 Z " fill="#000102" transform="translate(984,611)"/>
<path d="M0 0 C2 1 2 1 2 1 Z " fill="#000102" transform="translate(291,611)"/>
<path d="M0 0 C2 1 2 1 2 1 Z " fill="#000102" transform="translate(971,606)"/>
<path d="" fill="#000102" transform="translate(0,0)"/>
<path d="" fill="#000102" transform="translate(0,0)"/>
<path d="" fill="#000102" transform="translate(0,0)"/>
<path d="" fill="#000102" transform="translate(0,0)"/>
<path d="" fill="#000102" transform="translate(0,0)"/>
<path d="" fill="#000102" transform="translate(0,0)"/>
<path d="" fill="#000102" transform="translate(0,0)"/>
<path d="" fill="#000102" transform="translate(0,0)"/>
<path d="" fill="#000102" transform="translate(0,0)"/>
<path d="" fill="#000102" transform="translate(0,0)"/>
<path d="" fill="#000102" transform="translate(0,0)"/>
<path d="" fill="#000102" transform="translate(0,0)"/>
<path d="" fill="#000102" transform="translate(0,0)"/>
<path d="" fill="#000102" transform="translate(0,0)"/>
<path d="" fill="#000102" transform="translate(0,0)"/>
<path d="" fill="#000102" transform="translate(0,0)"/>
<path d="" fill="#000102" transform="translate(0,0)"/>
<path d="" fill="#000102" transform="translate(0,0)"/>
<path d="" fill="#000102" transform="translate(0,0)"/>
<path d="" fill="#000102" transform="translate(0,0)"/>
<path d="" fill="#000102" transform="translate(0,0)"/>
<path d="" fill="#000102" transform="translate(0,0)"/>
<path d="" fill="#000102" transform="translate(0,0)"/>
<path d="" fill="#000102" transform="translate(0,0)"/>
<path d="" fill="#000102" transform="translate(0,0)"/>
<path d="" fill="#000102" transform="translate(0,0)"/>
<path d="" fill="#000102" transform="translate(0,0)"/>
<path d="M0 0 C2 1 2 1 2 1 Z " fill="#000102" transform="translate(681,426)"/>
<path d="" fill="#254652" transform="translate(0,0)"/>
<path d="M0 0 C2 1 2 1 2 1 Z " fill="#000102" transform="translate(603,422)"/>
<path d="" fill="#000102" transform="translate(0,0)"/>
<path d="M0 0 C2 1 2 1 2 1 Z " fill="#000102" transform="translate(661,357)"/>
<path d="M0 0 C2 1 2 1 2 1 Z " fill="#000102" transform="translate(658,356)"/>
<path d="M0 0 C2 1 2 1 2 1 Z " fill="#000102" transform="translate(487,356)"/>
<path d="M0 0 C2 1 2 1 2 1 Z " fill="#000102" transform="translate(629,352)"/>
<path d="M0 0 C2 1 2 1 2 1 Z " fill="#000102" transform="translate(746,282)"/>
<path d="M0 0 C2 1 2 1 2 1 Z " fill="#000102" transform="translate(743,281)"/>
<path d="M0 0 C2 1 2 1 2 1 Z " fill="#000102" transform="translate(534,281)"/>
<path d="M0 0 C2 1 2 1 2 1 Z " fill="#000102" transform="translate(731,277)"/>
<path d="M0 0 C2 1 2 1 2 1 Z " fill="#000102" transform="translate(728,276)"/>
<path d="M0 0 C2 1 2 1 2 1 Z " fill="#000102" transform="translate(716,272)"/>
<path d="M0 0 C2 1 2 1 2 1 Z " fill="#000102" transform="translate(564,271)"/>
<path d="M0 0 C2 1 2 1 2 1 Z " fill="#000102" transform="translate(579,266)"/>
<path d="M0 0 C2 1 2 1 2 1 Z " fill="#000102" transform="translate(686,262)"/>
<path d="M0 0 C2 1 2 1 2 1 Z " fill="#000102" transform="translate(590,262)"/>
<path d="M0 0 C2 1 2 1 2 1 Z " fill="#000102" transform="translate(683,261)"/>
<path d="M0 0 C2 1 2 1 2 1 Z " fill="#000102" transform="translate(671,257)"/>
<path d="M0 0 C2 1 2 1 2 1 Z " fill="#000102" transform="translate(605,257)"/>
<path d="M0 0 C2 1 2 1 2 1 Z " fill="#000102" transform="translate(668,256)"/>
<path d="" fill="#000102" transform="translate(0,0)"/>
<path d="" fill="#000102" transform="translate(0,0)"/>
<path d="" fill="#000102" transform="translate(0,0)"/>
<path d="" fill="#000102" transform="translate(0,0)"/>
<path d="" fill="#000102" transform="translate(0,0)"/>
<path d="" fill="#000102" transform="translate(0,0)"/>
<path d="" fill="#000102" transform="translate(0,0)"/>
<path d="" fill="#000102" transform="translate(0,0)"/>
<path d="" fill="#000102" transform="translate(0,0)"/>
<path d="" fill="#000102" transform="translate(0,0)"/>
<path d="" fill="#000102" transform="translate(0,0)"/>
<path d="" fill="#000102" transform="translate(0,0)"/>
<path d="" fill="#000102" transform="translate(0,0)"/>
<path d="" fill="#000102" transform="translate(0,0)"/>
<path d="" fill="#000102" transform="translate(0,0)"/>
<path d="" fill="#000102" transform="translate(0,0)"/>
<path d="" fill="#000102" transform="translate(0,0)"/>
<path d="" fill="#000102" transform="translate(0,0)"/>
<path d="" fill="#000102" transform="translate(0,0)"/>
<path d="" fill="#000102" transform="translate(0,0)"/>
<path d="" fill="#000102" transform="translate(0,0)"/>
<path d="" fill="#000102" transform="translate(0,0)"/>
<path d="" fill="#000102" transform="translate(0,0)"/>
<path d="" fill="#000102" transform="translate(0,0)"/>
<path d="" fill="#000102" transform="translate(0,0)"/>
<path d="" fill="#000102" transform="translate(0,0)"/>
<path d="" fill="#000102" transform="translate(0,0)"/>
<path d="" fill="#000102" transform="translate(0,0)"/>
<path d="" fill="#000102" transform="translate(0,0)"/>
<path d="" fill="#000102" transform="translate(0,0)"/>
<path d="" fill="#000102" transform="translate(0,0)"/>
<path d="" fill="#000102" transform="translate(0,0)"/>
<path d="" fill="#000102" transform="translate(0,0)"/>
<path d="" fill="#000102" transform="translate(0,0)"/>
<path d="" fill="#000102" transform="translate(0,0)"/>
<path d="" fill="#000102" transform="translate(0,0)"/>
<path d="" fill="#000102" transform="translate(0,0)"/>
<path d="" fill="#000102" transform="translate(0,0)"/>
<path d="" fill="#000102" transform="translate(0,0)"/>
<path d="" fill="#000102" transform="translate(0,0)"/>
<path d="" fill="#000102" transform="translate(0,0)"/>
<path d="" fill="#000102" transform="translate(0,0)"/>
<path d="" fill="#000102" transform="translate(0,0)"/>
<path d="" fill="#000102" transform="translate(0,0)"/>
<path d="" fill="#000102" transform="translate(0,0)"/>
<path d="" fill="#000102" transform="translate(0,0)"/>
<path d="" fill="#000102" transform="translate(0,0)"/>
<path d="" fill="#254652" transform="translate(0,0)"/>
<path d="" fill="#000102" transform="translate(0,0)"/>
<path d="" fill="#000102" transform="translate(0,0)"/>
<path d="" fill="#000102" transform="translate(0,0)"/>
<path d="" fill="#000102" transform="translate(0,0)"/>
<path d="" fill="#000102" transform="translate(0,0)"/>
<path d="" fill="#000102" transform="translate(0,0)"/>
<path d="" fill="#000102" transform="translate(0,0)"/>
<path d="" fill="#000102" transform="translate(0,0)"/>
<path d="" fill="#000102" transform="translate(0,0)"/>
<path d="" fill="#000102" transform="translate(0,0)"/>
<path d="" fill="#254652" transform="translate(0,0)"/>
<path d="" fill="#000102" transform="translate(0,0)"/>
<path d="" fill="#000102" transform="translate(0,0)"/>
<path d="" fill="#000102" transform="translate(0,0)"/>
<path d="" fill="#000102" transform="translate(0,0)"/>
<path d="" fill="#000102" transform="translate(0,0)"/>
<path d="" fill="#000102" transform="translate(0,0)"/>
<path d="" fill="#000102" transform="translate(0,0)"/>
<path d="" fill="#000102" transform="translate(0,0)"/>
<path d="" fill="#000102" transform="translate(0,0)"/>
<path d="" fill="#000102" transform="translate(0,0)"/>
<path d="" fill="#254652" transform="translate(0,0)"/>
<path d="" fill="#000102" transform="translate(0,0)"/>
<path d="" fill="#000102" transform="translate(0,0)"/>
<path d="" fill="#000102" transform="translate(0,0)"/>
<path d="" fill="#000102" transform="translate(0,0)"/>
<path d="" fill="#000102" transform="translate(0,0)"/>
<path d="" fill="#000102" transform="translate(0,0)"/>
<path d="" fill="#000102" transform="translate(0,0)"/>
<path d="" fill="#000102" transform="translate(0,0)"/>
<path d="" fill="#000102" transform="translate(0,0)"/>
<path d="" fill="#000102" transform="translate(0,0)"/>
<path d="" fill="#000102" transform="translate(0,0)"/>
<path d="" fill="#000102" transform="translate(0,0)"/>
<path d="" fill="#000102" transform="translate(0,0)"/>
<path d="" fill="#000102" transform="translate(0,0)"/>
<path d="" fill="#000102" transform="translate(0,0)"/>
<path d="" fill="#000102" transform="translate(0,0)"/>
<path d="" fill="#000102" transform="translate(0,0)"/>
<path d="" fill="#000102" transform="translate(0,0)"/>
<path d="" fill="#000102" transform="translate(0,0)"/>
<path d="" fill="#000102" transform="translate(0,0)"/>
<path d="" fill="#000102" transform="translate(0,0)"/>
<path d="" fill="#000102" transform="translate(0,0)"/>
<path d="" fill="#000102" transform="translate(0,0)"/>
<path d="" fill="#000102" transform="translate(0,0)"/>
<path d="" fill="#000102" transform="translate(0,0)"/>
<path d="" fill="#000102" transform="translate(0,0)"/>
<path d="" fill="#000102" transform="translate(0,0)"/>
<path d="" fill="#000102" transform="translate(0,0)"/>
<path d="" fill="#000102" transform="translate(0,0)"/>
<path d="" fill="#000102" transform="translate(0,0)"/>
<path d="" fill="#000102" transform="translate(0,0)"/>
<path d="" fill="#000102" transform="translate(0,0)"/>
<path d="" fill="#000102" transform="translate(0,0)"/>
<path d="" fill="#000102" transform="translate(0,0)"/>
<path d="" fill="#254652" transform="translate(0,0)"/>
<path d="" fill="#000102" transform="translate(0,0)"/>
<path d="" fill="#000102" transform="translate(0,0)"/>
<path d="" fill="#000102" transform="translate(0,0)"/>
<path d="" fill="#000102" transform="translate(0,0)"/>
<path d="" fill="#000102" transform="translate(0,0)"/>
<path d="" fill="#000102" transform="translate(0,0)"/>
<path d="" fill="#000102" transform="translate(0,0)"/>
<path d="" fill="#000102" transform="translate(0,0)"/>
<path d="" fill="#000102" transform="translate(0,0)"/>
<path d="" fill="#000102" transform="translate(0,0)"/>
<path d="" fill="#000102" transform="translate(0,0)"/>
<path d="" fill="#000102" transform="translate(0,0)"/>
<path d="" fill="#000102" transform="translate(0,0)"/>
<path d="" fill="#000102" transform="translate(0,0)"/>
<path d="" fill="#254652" transform="translate(0,0)"/>
<path d="" fill="#254652" transform="translate(0,0)"/>
<path d="" fill="#254652" transform="translate(0,0)"/>
<path d="" fill="#000102" transform="translate(0,0)"/>
<path d="" fill="#254652" transform="translate(0,0)"/>
<path d="" fill="#000102" transform="translate(0,0)"/>
<path d="" fill="#000102" transform="translate(0,0)"/>
<path d="" fill="#254652" transform="translate(0,0)"/>
<path d="" fill="#000102" transform="translate(0,0)"/>
<path d="" fill="#000102" transform="translate(0,0)"/>
<path d="" fill="#000102" transform="translate(0,0)"/>
<path d="" fill="#000102" transform="translate(0,0)"/>
<path d="" fill="#000102" transform="translate(0,0)"/>
<path d="" fill="#000102" transform="translate(0,0)"/>
<path d="" fill="#000102" transform="translate(0,0)"/>
<path d="" fill="#000102" transform="translate(0,0)"/>
<path d="" fill="#000102" transform="translate(0,0)"/>
<path d="" fill="#000102" transform="translate(0,0)"/>
<path d="" fill="#000102" transform="translate(0,0)"/>
<path d="" fill="#000102" transform="translate(0,0)"/>
<path d="" fill="#000102" transform="translate(0,0)"/>
<path d="" fill="#000102" transform="translate(0,0)"/>
<path d="" fill="#000102" transform="translate(0,0)"/>
<path d="" fill="#000102" transform="translate(0,0)"/>
<path d="" fill="#000102" transform="translate(0,0)"/>
<path d="" fill="#000102" transform="translate(0,0)"/>
<path d="" fill="#000102" transform="translate(0,0)"/>
<path d="" fill="#000102" transform="translate(0,0)"/>
<path d="" fill="#000102" transform="translate(0,0)"/>
<path d="" fill="#000102" transform="translate(0,0)"/>
<path d="" fill="#000102" transform="translate(0,0)"/>
<path d="" fill="#000102" transform="translate(0,0)"/>
<path d="" fill="#000102" transform="translate(0,0)"/>
<path d="" fill="#000102" transform="translate(0,0)"/>
<path d="" fill="#000102" transform="translate(0,0)"/>
<path d="" fill="#000102" transform="translate(0,0)"/>
<path d="" fill="#000102" transform="translate(0,0)"/>
<path d="" fill="#000102" transform="translate(0,0)"/>
<path d="" fill="#000102" transform="translate(0,0)"/>
<path d="" fill="#000102" transform="translate(0,0)"/>
<path d="" fill="#000102" transform="translate(0,0)"/>
<path d="" fill="#000102" transform="translate(0,0)"/>
<path d="" fill="#000102" transform="translate(0,0)"/>
<path d="" fill="#000102" transform="translate(0,0)"/>
<path d="" fill="#000102" transform="translate(0,0)"/>
<path d="" fill="#254652" transform="translate(0,0)"/>
<path d="" fill="#000102" transform="translate(0,0)"/>
<path d="" fill="#000102" transform="translate(0,0)"/>
<path d="" fill="#000102" transform="translate(0,0)"/>
<path d="" fill="#000102" transform="translate(0,0)"/>
<path d="" fill="#000102" transform="translate(0,0)"/>
<path d="" fill="#000102" transform="translate(0,0)"/>
<path d="" fill="#000102" transform="translate(0,0)"/>
<path d="" fill="#000102" transform="translate(0,0)"/>
<path d="" fill="#000102" transform="translate(0,0)"/>
<path d="" fill="#000102" transform="translate(0,0)"/>
<path d="" fill="#000102" transform="translate(0,0)"/>
<path d="" fill="#000102" transform="translate(0,0)"/>
<path d="" fill="#000102" transform="translate(0,0)"/>
<path d="" fill="#000102" transform="translate(0,0)"/>
<path d="" fill="#000102" transform="translate(0,0)"/>
<path d="" fill="#000102" transform="translate(0,0)"/>
<path d="" fill="#000102" transform="translate(0,0)"/>
<path d="" fill="#000102" transform="translate(0,0)"/>
<path d="" fill="#000102" transform="translate(0,0)"/>
<path d="" fill="#000102" transform="translate(0,0)"/>
<path d="" fill="#000102" transform="translate(0,0)"/>
<path d="" fill="#000102" transform="translate(0,0)"/>
<path d="" fill="#000102" transform="translate(0,0)"/>
<path d="" fill="#000102" transform="translate(0,0)"/>
<path d="" fill="#000102" transform="translate(0,0)"/>
<path d="" fill="#000102" transform="translate(0,0)"/>
<path d="" fill="#000102" transform="translate(0,0)"/>
<path d="" fill="#000102" transform="translate(0,0)"/>
<path d="" fill="#000102" transform="translate(0,0)"/>
<path d="" fill="#254652" transform="translate(0,0)"/>
<path d="" fill="#000102" transform="translate(0,0)"/>
<path d="" fill="#000102" transform="translate(0,0)"/>
<path d="" fill="#000102" transform="translate(0,0)"/>
<path d="" fill="#000102" transform="translate(0,0)"/>
<path d="" fill="#000102" transform="translate(0,0)"/>
<path d="" fill="#000102" transform="translate(0,0)"/>
<path d="" fill="#000102" transform="translate(0,0)"/>
<path d="" fill="#000102" transform="translate(0,0)"/>
<path d="" fill="#000102" transform="translate(0,0)"/>
<path d="" fill="#000102" transform="translate(0,0)"/>
<path d="" fill="#000102" transform="translate(0,0)"/>
<path d="" fill="#000102" transform="translate(0,0)"/>
<path d="" fill="#000102" transform="translate(0,0)"/>
<path d="" fill="#254652" transform="translate(0,0)"/>
<path d="" fill="#000102" transform="translate(0,0)"/>
</svg>
